<svg xmlns="http://www.w3.org/2000/svg" width="113" height="99" viewBox="0 0 113 99">
  <g id="Group_2134" data-name="Group 2134" transform="translate(-1088 -1228)">
    <rect id="Rectangle_313" data-name="Rectangle 313" width="113" height="99" rx="10" transform="translate(1088 1228)" fill="#e9e9e0"/>
    <g id="doc" transform="translate(1113 1244.976)">
      <path id="Path_77" data-name="Path 77" d="M21.8,13.944H12.972a1.472,1.472,0,0,1,0-2.944H21.8a1.472,1.472,0,1,1,0,2.944Z" transform="translate(-4.14 5.109)" fill="#8697cb"/>
      <path id="Path_78" data-name="Path 78" d="M26.219,18.944H12.972a1.472,1.472,0,0,1,0-2.944H26.219a1.472,1.472,0,0,1,0,2.944Z" transform="translate(-4.14 7.431)" fill="#8697cb"/>
      <path id="Path_79" data-name="Path 79" d="M25.972,18.938a1.458,1.458,0,1,1,1.045-.427A1.548,1.548,0,0,1,25.972,18.938Z" transform="translate(1.858 7.437)" fill="#8697cb"/>
      <path id="Path_80" data-name="Path 80" d="M41.747,18.944H29.972a1.472,1.472,0,0,1,0-2.944H41.747a1.472,1.472,0,0,1,0,2.944Z" transform="translate(3.675 7.431)" fill="#8697cb"/>
      <path id="Path_81" data-name="Path 81" d="M12.972,33.938a1.475,1.475,0,1,1,1.045-2.517,1.52,1.52,0,0,1,.427,1.045,1.458,1.458,0,0,1-1.472,1.472Z" transform="translate(-4.14 14.404)" fill="#8697cb"/>
      <path id="Path_82" data-name="Path 82" d="M28.747,33.944H16.972a1.472,1.472,0,0,1,0-2.944H28.747a1.472,1.472,0,0,1,0,2.944Z" transform="translate(-2.337 14.398)" fill="#8697cb"/>
      <path id="Path_83" data-name="Path 83" d="M44.916,18.944H41.972a1.472,1.472,0,0,1,0-2.944h2.944a1.472,1.472,0,1,1,0,2.944Z" transform="translate(9.235 7.431)" fill="#8697cb"/>
      <path id="Path_84" data-name="Path 84" d="M45.354,23.944H12.972a1.472,1.472,0,0,1,0-2.944H45.354a1.472,1.472,0,0,1,0,2.944Z" transform="translate(-4.14 9.753)" fill="#8697cb"/>
      <path id="Path_85" data-name="Path 85" d="M46.8,23.944H37.972a1.472,1.472,0,0,1,0-2.944H46.8a1.472,1.472,0,0,1,0,2.944Z" transform="translate(7.347 9.753)" fill="#8697cb"/>
      <path id="Path_86" data-name="Path 86" d="M18.86,28.944H12.972a1.472,1.472,0,0,1,0-2.944H18.86a1.472,1.472,0,1,1,0,2.944Z" transform="translate(-4.14 12.076)" fill="#8697cb"/>
      <path id="Path_87" data-name="Path 87" d="M35.691,28.944H20.972a1.472,1.472,0,0,1,0-2.944H35.691a1.472,1.472,0,0,1,0,2.944Z" transform="translate(-0.495 12.076)" fill="#8697cb"/>
      <path id="Path_88" data-name="Path 88" d="M48.219,28.944H34.972a1.472,1.472,0,0,1,0-2.944H48.219a1.472,1.472,0,1,1,0,2.944Z" transform="translate(5.932 12.076)" fill="#8697cb"/>
      <path id="Path_89" data-name="Path 89" d="M67.34,64.023H8.643A2.148,2.148,0,0,1,6.5,61.869V39H69.482V61.869A2.148,2.148,0,0,1,67.34,64.023Z" transform="translate(-6.5 18.001)" fill="#0096e6"/>
      <g id="Group_230" data-name="Group 230" transform="translate(12.875 62.536)">
        <path id="Path_90" data-name="Path 90" d="M27.339,49.927a10.9,10.9,0,0,1-.393,3.129,7.78,7.78,0,0,1-1,2.174,5.119,5.119,0,0,1-1.359,1.379,6.815,6.815,0,0,1-1.459.755,6.027,6.027,0,0,1-1.288.322,8.589,8.589,0,0,1-.864.068H15.366V42.924h4.466a8.488,8.488,0,0,1,3.29.593A6.83,6.83,0,0,1,25.477,45.1a6.483,6.483,0,0,1,1.4,2.243A7.429,7.429,0,0,1,27.339,49.927Zm-7.164,6.057a4,4,0,0,0,3.541-1.569A7.966,7.966,0,0,0,24.8,49.867a7.7,7.7,0,0,0-.221-1.831,3.917,3.917,0,0,0-.855-1.64,4.513,4.513,0,0,0-1.721-1.188,7.409,7.409,0,0,0-2.817-.453H17.78V55.984h2.395Z" transform="translate(-15.366 -42.683)" fill="#fff"/>
        <path id="Path_91" data-name="Path 91" d="M37.436,50.346a10.507,10.507,0,0,1-.472,3.3,6.73,6.73,0,0,1-1.309,2.374A5.475,5.475,0,0,1,33.7,57.45a6.432,6.432,0,0,1-4.89,0,5.475,5.475,0,0,1-1.952-1.429,6.743,6.743,0,0,1-1.309-2.374,11.725,11.725,0,0,1,0-6.59,6.709,6.709,0,0,1,1.309-2.364,5.594,5.594,0,0,1,1.952-1.44,6.308,6.308,0,0,1,4.89,0,5.594,5.594,0,0,1,1.952,1.44,6.782,6.782,0,0,1,1.309,2.364A10.45,10.45,0,0,1,37.436,50.346ZM31.2,55.962a3.543,3.543,0,0,0,1.419-.291,3.172,3.172,0,0,0,1.207-.955,4.836,4.836,0,0,0,.835-1.741,10.459,10.459,0,0,0,.322-2.626,10.266,10.266,0,0,0-.312-2.566,5.15,5.15,0,0,0-.805-1.741,3.1,3.1,0,0,0-1.167-.986,3.243,3.243,0,0,0-1.379-.3,3.632,3.632,0,0,0-1.419.281,3.04,3.04,0,0,0-1.207.955,4.921,4.921,0,0,0-.835,1.741,10.269,10.269,0,0,0-.322,2.616,10.4,10.4,0,0,0,.312,2.576,5.045,5.045,0,0,0,.805,1.741,3.227,3.227,0,0,0,1.167.986A3.176,3.176,0,0,0,31.2,55.962Z" transform="translate(-10.781 -42.76)" fill="#fff"/>
        <path id="Path_92" data-name="Path 92" d="M45.91,56.324a5.49,5.49,0,0,1-1.871,1.207,6.2,6.2,0,0,1-2.254.4,6.086,6.086,0,0,1-2.445-.483,5.475,5.475,0,0,1-1.952-1.429,6.743,6.743,0,0,1-1.309-2.374,11.725,11.725,0,0,1,0-6.59,6.709,6.709,0,0,1,1.309-2.364,5.564,5.564,0,0,1,1.962-1.44,5.989,5.989,0,0,1,2.435-.493,6.231,6.231,0,0,1,2.254.4,5.5,5.5,0,0,1,1.871,1.207l-1.671,1.49a3.05,3.05,0,0,0-1.117-.845,3.237,3.237,0,0,0-1.278-.262,3.632,3.632,0,0,0-1.419.281,3.04,3.04,0,0,0-1.207.955,4.921,4.921,0,0,0-.835,1.741,10.269,10.269,0,0,0-.322,2.616,10.4,10.4,0,0,0,.312,2.576,5.045,5.045,0,0,0,.805,1.741,3.227,3.227,0,0,0,1.167.986,3.146,3.146,0,0,0,1.379.312,3.535,3.535,0,0,0,1.359-.262,3.19,3.19,0,0,0,1.157-.845Z" transform="translate(-5.813 -42.76)" fill="#fff"/>
      </g>
    </g>
  </g>
</svg>
