<svg xmlns="http://www.w3.org/2000/svg" width="113" height="99" viewBox="0 0 113 99">
  <g id="Group_2136" data-name="Group 2136" transform="translate(-267 -1208)">
    <rect id="Rectangle_312" data-name="Rectangle 312" width="113" height="99" rx="10" transform="translate(267 1208)" fill="#e9e9e0"/>
    <g id="pdf" transform="translate(292.128 1220.663)">
      <path id="Path_55" data-name="Path 55" d="M20.532,46.156h0a2.385,2.385,0,0,1-1.437-.484,3.561,3.561,0,0,1-1.657-3.331c.27-2.419,3.261-4.951,8.892-7.53a99.735,99.735,0,0,0,5.628-15.972c-1.483-3.227-2.924-7.414-1.874-9.87A2.85,2.85,0,0,1,31.77,7.164a7.294,7.294,0,0,1,1.51-.256c.749,0,1.407.964,1.874,1.559.438.559,1.432,1.743-.554,10.106a47.477,47.477,0,0,0,7.56,11.235,28.905,28.905,0,0,1,4.989-.532c2.327,0,3.737.542,4.312,1.66.475.924.281,2-.579,3.209a3.949,3.949,0,0,1-3.3,1.77c-1.807,0-3.911-1.141-6.257-3.395a71.191,71.191,0,0,0-13.116,4.193,42.157,42.157,0,0,1-3.541,6.316C23.146,45.161,21.832,46.156,20.532,46.156Zm3.955-7.616c-3.175,1.784-4.469,3.251-4.563,4.077-.015.137-.055.5.64,1.028C20.786,43.575,22.079,42.986,24.487,38.54Zm20.262-6.6c1.211.932,1.507,1.4,2.3,1.4a2.24,2.24,0,0,0,1.8-.655,2.352,2.352,0,0,0,.342-.617c-.183-.1-.425-.293-1.746-.293A21.724,21.724,0,0,0,44.749,31.94Zm-11.1-9.779A105.924,105.924,0,0,1,29.677,33.4a74.237,74.237,0,0,1,9.652-3A50.859,50.859,0,0,1,33.65,22.161Zm-.9-12.573a3.563,3.563,0,0,0,.143,4.778C34.3,11.224,32.812,9.568,32.748,9.588Z" transform="translate(-1.284 3.356)" fill="#cc4b4c"/>
      <path id="Path_56" data-name="Path 56" d="M68.061,64.258H8.668A2.171,2.171,0,0,1,6.5,62.084V39H70.229V62.084A2.171,2.171,0,0,1,68.061,64.258Z" transform="translate(-6.5 22.079)" fill="#cc4b4c"/>
      <g id="Group_226" data-name="Group 226" transform="translate(13.652 66.909)">
        <path id="Path_57" data-name="Path 57" d="M18.182,57.895H15.744V42.924H20.05a6.043,6.043,0,0,1,1.888.3,5.135,5.135,0,0,1,1.676.914,4.772,4.772,0,0,1,1.2,1.472,4.08,4.08,0,0,1,.458,1.94,5.308,5.308,0,0,1-.386,2.062,4.31,4.31,0,0,1-1.077,1.554,4.854,4.854,0,0,1-1.666.975,6.409,6.409,0,0,1-2.153.345H18.181v5.4Zm0-13.122V50.7h2.235a2.655,2.655,0,0,0,.884-.153,2.227,2.227,0,0,0,.8-.5,2.433,2.433,0,0,0,.588-.964,4.568,4.568,0,0,0,.223-1.533,4.148,4.148,0,0,0-.1-.842A2.432,2.432,0,0,0,22.4,45.8a2.462,2.462,0,0,0-.884-.731,3.284,3.284,0,0,0-1.5-.294H18.182Z" transform="translate(-15.744 -42.924)" fill="#fff"/>
        <path id="Path_58" data-name="Path 58" d="M36.171,49.993a11,11,0,0,1-.4,3.159,7.853,7.853,0,0,1-1.006,2.194A5.167,5.167,0,0,1,33.4,56.739a6.88,6.88,0,0,1-1.472.762,6.084,6.084,0,0,1-1.3.325,8.655,8.655,0,0,1-.874.068H24.084V42.924h4.509a8.568,8.568,0,0,1,3.321.6,6.9,6.9,0,0,1,2.377,1.594A6.544,6.544,0,0,1,35.7,47.381,7.5,7.5,0,0,1,36.171,49.993ZM28.94,56.107a4.036,4.036,0,0,0,3.575-1.584,8.041,8.041,0,0,0,1.1-4.591,7.776,7.776,0,0,0-.223-1.848,3.954,3.954,0,0,0-.863-1.655,4.556,4.556,0,0,0-1.737-1.2,7.479,7.479,0,0,0-2.844-.458H26.522V56.107H28.94Z" transform="translate(-11.693 -42.924)" fill="#fff"/>
        <path id="Path_59" data-name="Path 59" d="M37.076,44.772v4.713h6.257v1.666H37.076v6.744H34.6V42.924h9.363v1.848Z" transform="translate(-6.585 -42.924)" fill="#fff"/>
      </g>
    </g>
  </g>
</svg>
