<svg xmlns="http://www.w3.org/2000/svg" width="113" height="99.024" viewBox="0 0 113 99.024">
  <g id="Group_2206" data-name="Group 2206" transform="translate(5017 -1418)">
    <rect id="Rectangle_313" data-name="Rectangle 313" width="113" height="99" rx="10" transform="translate(-5017 1418)" fill="#e9e9e0"/>
    <g id="ppt_1_" data-name="ppt (1)" transform="translate(-4998.5 1435)">
      <path id="Path_1944" data-name="Path 1944" d="M51.152,0H8.643C7.459,0,6.5.959,6.5,2.821V80.559a2.206,2.206,0,0,0,2.143,1.465h58.7a2.206,2.206,0,0,0,2.143-1.465V19.009c0-1.019-.136-1.348-.376-1.589L52.063.376A1.294,1.294,0,0,0,51.152,0Z" transform="translate(0)" fill="#e9e9e0"/>
      <path id="Path_1946" data-name="Path 1946" d="M67.34,63.9H8.643A2.143,2.143,0,0,1,6.5,61.757V39H69.482V61.757A2.143,2.143,0,0,1,67.34,63.9Z" transform="translate(0 18.124)" fill="#f6712e"/>
      <g id="Group_2204" data-name="Group 2204" transform="translate(20.327 62.871)">
        <path id="Path_1947" data-name="Path 1947" d="M18.344,57.682h-2.4V42.924h4.245a5.958,5.958,0,0,1,1.862.3,5.063,5.063,0,0,1,1.652.9,4.7,4.7,0,0,1,1.182,1.452,4.022,4.022,0,0,1,.451,1.913,5.233,5.233,0,0,1-.381,2.033,4.249,4.249,0,0,1-1.062,1.532,4.785,4.785,0,0,1-1.642.961,6.318,6.318,0,0,1-2.122.34H18.342v5.327Zm0-12.936v5.847h2.2a2.617,2.617,0,0,0,.872-.151,2.2,2.2,0,0,0,.791-.491,2.4,2.4,0,0,0,.58-.951,4.5,4.5,0,0,0,.22-1.512,4.089,4.089,0,0,0-.1-.83,2.4,2.4,0,0,0-.41-.9,2.427,2.427,0,0,0-.872-.721,3.238,3.238,0,0,0-1.482-.29h-1.8Z" transform="translate(-15.94 -42.924)" fill="#fff"/>
        <path id="Path_1948" data-name="Path 1948" d="M26.616,57.682h-2.4V42.924h4.245a5.958,5.958,0,0,1,1.862.3,5.063,5.063,0,0,1,1.652.9,4.7,4.7,0,0,1,1.182,1.452A4.022,4.022,0,0,1,33.6,47.49a5.233,5.233,0,0,1-.381,2.033,4.249,4.249,0,0,1-1.062,1.532,4.785,4.785,0,0,1-1.642.961,6.318,6.318,0,0,1-2.122.34H26.614v5.327Zm0-12.936v5.847h2.2a2.617,2.617,0,0,0,.871-.151,2.2,2.2,0,0,0,.791-.491,2.4,2.4,0,0,0,.58-.951,4.5,4.5,0,0,0,.22-1.512,4.089,4.089,0,0,0-.1-.83,2.4,2.4,0,0,0-.41-.9,2.427,2.427,0,0,0-.871-.721,3.238,3.238,0,0,0-1.482-.29h-1.8Z" transform="translate(-12.096 -42.924)" fill="#fff"/>
        <path id="Path_1949" data-name="Path 1949" d="M43.17,42.924v1.642H38.764V57.682H36.342V44.566H31.936V42.924Z" transform="translate(-8.507 -42.924)" fill="#fff"/>
      </g>
      <path id="Path_1950" data-name="Path 1950" d="M50.653,37.435H15.5V14H50.653ZM18.429,34.506H47.724V16.929H18.429Z" transform="translate(4.182 6.506)" fill="#c8bdb8"/>
      <path id="Path_1951" data-name="Path 1951" d="M20.964,38.253a1.466,1.466,0,0,1-1.255-2.219L24.1,28.711a1.465,1.465,0,0,1,2.512,1.507L22.22,37.541A1.46,1.46,0,0,1,20.964,38.253Z" transform="translate(6.041 13.011)" fill="#c8bdb8"/>
      <path id="Path_1952" data-name="Path 1952" d="M36.36,38.253a1.462,1.462,0,0,1-1.257-.71l-4.394-7.324a1.465,1.465,0,0,1,2.512-1.507l4.394,7.324a1.464,1.464,0,0,1-1.255,2.218Z" transform="translate(11.153 13.012)" fill="#c8bdb8"/>
      <path id="Path_1953" data-name="Path 1953" d="M27.965,18.324A1.464,1.464,0,0,1,26.5,16.859V12.465a1.465,1.465,0,0,1,2.929,0v4.394A1.464,1.464,0,0,1,27.965,18.324Z" transform="translate(9.294 5.112)" fill="#c8bdb8"/>
      <rect id="Rectangle_413" data-name="Rectangle 413" width="29.294" height="17.576" transform="translate(22.612 23.435)" fill="#d3ccc9"/>
    </g>
  </g>
</svg>
