<svg xmlns="http://www.w3.org/2000/svg" width="113" height="99" viewBox="0 0 113 99">
  <g id="Group_2540" data-name="Group 2540" transform="translate(-1439 -977)">
    <rect id="Rectangle_410" data-name="Rectangle 410" width="113" height="99" rx="10" transform="translate(1439 977)" fill="#e9e9e0"/>
    <g id="xls" transform="translate(1460.559 981.47)">
      <path id="Path_68" data-name="Path 68" d="M57.96,0H8.97C7.606,0,6.5,1.106,6.5,3.251V92.842A2.542,2.542,0,0,0,8.97,94.53H76.616a2.542,2.542,0,0,0,2.47-1.688V21.907c0-1.175-.157-1.553-.434-1.832L59.01.434A1.492,1.492,0,0,0,57.96,0Z" transform="translate(-6.5)" fill="#e9e9e0"/>
      <path id="Path_70" data-name="Path 70" d="M76.616,67.768H8.97A2.473,2.473,0,0,1,6.5,65.293V39H79.085V65.293A2.473,2.473,0,0,1,76.616,67.768Z" transform="translate(-6.5 26.761)" fill="#91cda0"/>
      <g id="Group_229" data-name="Group 229" transform="translate(15.167 72.124)">
        <path id="Path_71" data-name="Path 71" d="M23.748,51.692l4.327,8.284H24.86l-2.708-6.432h-.232L19,59.976H15.79l4.327-8.284-4.6-8.769h3.17l3.007,6.942h.232l3.263-6.942h3.17Z" transform="translate(-15.512 -42.647)" fill="#fff"/>
        <path id="Path_72" data-name="Path 72" d="M28.192,42.924V57.87h7.844v2.105H25.369V42.924Z" transform="translate(-8.688 -42.646)" fill="#fff"/>
        <path id="Path_73" data-name="Path 73" d="M43.092,55.415a4.4,4.4,0,0,1-.382,1.794,4.717,4.717,0,0,1-1.075,1.526,5.13,5.13,0,0,1-1.713,1.053,6.382,6.382,0,0,1-2.313.393c-.371,0-.751-.02-1.146-.058a9.3,9.3,0,0,1-1.191-.2,6.238,6.238,0,0,1-1.146-.382,3.674,3.674,0,0,1-.937-.591l.486-1.99a4.879,4.879,0,0,0,.821.359c.332.115.674.223,1.029.323a10.379,10.379,0,0,0,1.064.244,5.889,5.889,0,0,0,1,.093,3.179,3.179,0,0,0,2.163-.66,2.463,2.463,0,0,0,.751-1.955,1.873,1.873,0,0,0-.531-1.342,5.762,5.762,0,0,0-1.33-1.007q-.8-.452-1.724-.9a10.447,10.447,0,0,1-1.735-1.064,5.553,5.553,0,0,1-1.342-1.445,3.788,3.788,0,0,1-.531-2.081,4.649,4.649,0,0,1,.416-2.012,4.5,4.5,0,0,1,1.122-1.493,4.966,4.966,0,0,1,1.643-.938,6,6,0,0,1,1.978-.323,12.135,12.135,0,0,1,2.151.2,4.741,4.741,0,0,1,1.758.636c-.093.2-.2.42-.323.66s-.24.462-.347.67-.2.382-.278.521a2.135,2.135,0,0,1-.139.232,2.8,2.8,0,0,1-.313-.184,2.4,2.4,0,0,0-.5-.232,3.548,3.548,0,0,0-.856-.162,8.089,8.089,0,0,0-1.366.024,2.39,2.39,0,0,0-.88.266,3.045,3.045,0,0,0-.741.543,2.478,2.478,0,0,0-.509.729,1.862,1.862,0,0,0-.184.775,2.093,2.093,0,0,0,.531,1.493,5.157,5.157,0,0,0,1.318,1q.787.429,1.713.833a9.339,9.339,0,0,1,1.724.983,4.968,4.968,0,0,1,1.33,1.445A4.176,4.176,0,0,1,43.092,55.415Z" transform="translate(-3.275 -42.76)" fill="#fff"/>
      </g>
      <path id="Path_74" data-name="Path 74" d="M31.741,18.769V12H11.5V49.23H67.163V18.769ZM14.874,15.385H28.368v3.385H14.874Zm0,6.769H28.368v3.384H14.874Zm0,6.769H28.368v3.385H14.874Zm0,6.769H28.368v3.385H14.874ZM28.368,45.845H14.874V42.461H28.368Zm35.422,0H31.741V42.461H63.789Zm0-6.769H31.741V35.692H63.789Zm0-6.769H31.741V28.923H63.789ZM31.741,25.538V22.154H63.789v3.384Z" transform="translate(-3.039 8.224)" fill="#c8bdb8"/>
    </g>
  </g>
</svg>
