<svg xmlns="http://www.w3.org/2000/svg" width="113" height="99" viewBox="0 0 113 99">
  <g id="Group_2141" data-name="Group 2141" transform="translate(-658 -977)">
    <rect id="Rectangle_409" data-name="Rectangle 409" width="113" height="99" rx="10" transform="translate(658 977)" fill="#e9e9e0"/>
    <g id="zip" transform="translate(679 984.833)">
      <path id="Path_60" data-name="Path 60" d="M56.129,0H8.882C7.566,0,6.5,1.066,6.5,3.136v86.4a2.452,2.452,0,0,0,2.382,1.628h65.24A2.452,2.452,0,0,0,76.5,89.54V21.128c0-1.133-.151-1.5-.418-1.766L57.142.418A1.439,1.439,0,0,0,56.129,0Z" transform="translate(-6.5)" fill="#e9e9e0"/>
      <path id="Path_62" data-name="Path 62" d="M74.122,66.745H8.882A2.385,2.385,0,0,1,6.5,64.357V39h70V64.357A2.385,2.385,0,0,1,74.122,66.745Z" transform="translate(-6.5 24.423)" fill="#556080"/>
      <g id="Group_227" data-name="Group 227" transform="translate(19.604 69.827)">
        <path id="Path_63" data-name="Path 63" d="M29.5,42.924v2.164L21.668,56.847l-.446.357H29.5v2.164H18.567V57.2L26.4,45.446l.468-.357h-8.3V42.924Z" transform="translate(-18.567 -42.924)" fill="#fff"/>
        <path id="Path_64" data-name="Path 64" d="M30.325,59.369H27.6V42.924h2.722Z" transform="translate(-12.856 -42.924)" fill="#fff"/>
        <path id="Path_65" data-name="Path 65" d="M34.451,59.369H31.773V42.924H36.5a6.638,6.638,0,0,1,2.074.335,5.641,5.641,0,0,1,1.841,1,5.242,5.242,0,0,1,1.317,1.617,4.481,4.481,0,0,1,.5,2.131,5.831,5.831,0,0,1-.424,2.265,4.734,4.734,0,0,1-1.183,1.707,5.331,5.331,0,0,1-1.83,1.071,7.04,7.04,0,0,1-2.365.379H34.45v5.936Zm0-14.414v6.515h2.455a2.917,2.917,0,0,0,.971-.168,2.446,2.446,0,0,0,.881-.547A2.673,2.673,0,0,0,39.4,49.7a5.018,5.018,0,0,0,.245-1.684,4.556,4.556,0,0,0-.111-.925,2.672,2.672,0,0,0-.457-1,2.7,2.7,0,0,0-.971-.8,3.608,3.608,0,0,0-1.652-.323H34.451Z" transform="translate(-10.22 -42.924)" fill="#fff"/>
      </g>
      <g id="Group_228" data-name="Group 228" transform="translate(26.028 9.792)">
        <path id="Path_66" data-name="Path 66" d="M32.292,35.377V32.113h3.264V28.849H32.292V25.585h3.264V22.321H32.292V19.057h3.264V15.792H32.292V12.528h3.264V9.264H32.292V6H29.028V9.264H25.764v3.264h3.264v3.264H25.764v3.264h3.264v3.264H25.764v3.264h3.264v3.264H25.764v3.264h3.264v3.264H22.5v8.16a8.16,8.16,0,1,0,16.321,0v-8.16Zm3.264,8.16a4.9,4.9,0,1,1-9.792,0v-4.9h9.792Z" transform="translate(-22.5 -6)" fill="#c8bdb8"/>
        <path id="Path_67" data-name="Path 67" d="M27.132,31.264H30.4A1.632,1.632,0,1,0,30.4,28H27.132a1.632,1.632,0,1,0,0,3.264Z" transform="translate(-20.604 7.905)" fill="#c8bdb8"/>
      </g>
    </g>
  </g>
</svg>
