<svg xmlns="http://www.w3.org/2000/svg" width="78.433" height="78.432" viewBox="0 0 78.433 78.432">
  <g id="Group_2133" data-name="Group 2133" transform="translate(-273 -2463)">
    <ellipse id="Ellipse_83" data-name="Ellipse 83" cx="39.216" cy="39.216" rx="39.216" ry="39.216" transform="translate(273 2463)" fill="rgba(255,255,255,0.2)"/>
    <g id="bitcoin-logo" transform="translate(231.107 2482)">
      <path id="Path_1673" data-name="Path 1673" d="M93.751,20.985a7.247,7.247,0,0,0-4.221-2.476q3.594-1.827,3.16-6.2a6.115,6.115,0,0,0-.881-2.752,5.518,5.518,0,0,0-1.99-1.875A10.976,10.976,0,0,0,87.093,6.6a21.569,21.569,0,0,0-3.377-.541V0H80V5.889q-.965,0-2.942.048V0H73.346V6.058q-.8.024-2.34.024l-5.113-.024V10H68.57a1.915,1.915,0,0,1,2.147,1.635v6.9a2.46,2.46,0,0,1,.386.024h-.386v9.663a1.287,1.287,0,0,1-1.4,1.226H66.641l-.748,4.4h4.824q.458,0,1.327.011t1.3.012V40h3.715V33.942q1.013.025,2.942.024V40h3.714V33.87a28.968,28.968,0,0,0,3.509-.36,14.318,14.318,0,0,0,2.931-.83A7.913,7.913,0,0,0,92.5,31.274a6.637,6.637,0,0,0,1.556-2.139,9.071,9.071,0,0,0,.783-3.005A7.1,7.1,0,0,0,93.751,20.985ZM77.132,10.264q.169,0,.953-.012t1.3-.024q.519-.012,1.4.06a13.35,13.35,0,0,1,1.483.192,8.283,8.283,0,0,1,1.326.4,3.6,3.6,0,0,1,1.158.673,3.339,3.339,0,0,1,.735,1.01,3.143,3.143,0,0,1,.3,1.406,3.334,3.334,0,0,1-.217,1.226,2.311,2.311,0,0,1-.651.925,6.6,6.6,0,0,1-.893.649,4.1,4.1,0,0,1-1.17.445q-.711.168-1.242.264a10.2,10.2,0,0,1-1.327.132q-.8.036-1.206.048t-1.122,0q-.712-.012-.832-.012v-7.38h0Zm10.142,16.37a3.416,3.416,0,0,1-.591.962,3.349,3.349,0,0,1-.953.721,8.185,8.185,0,0,1-1.145.5,9.246,9.246,0,0,1-1.338.337q-.785.144-1.376.2t-1.411.1q-.82.035-1.278.036t-1.158-.012q-.7-.011-.893-.012V21.346q.193,0,1.146-.024t1.556-.024q.6,0,1.665.072a14.267,14.267,0,0,1,1.785.216,11.764,11.764,0,0,1,1.58.445,4.586,4.586,0,0,1,1.387.733,3.61,3.61,0,0,1,.892,1.106,3.424,3.424,0,0,1,.133,2.765Z" transform="translate(0)" fill="#fff"/>
    </g>
  </g>
</svg>
