<svg xmlns="http://www.w3.org/2000/svg" width="78.433" height="78.432" viewBox="0 0 78.433 78.432">
  <g id="Group_2135" data-name="Group 2135" transform="translate(-1034 -2463)">
    <ellipse id="Ellipse_117" data-name="Ellipse 117" cx="39.216" cy="39.216" rx="39.216" ry="39.216" transform="translate(1034 2463)" fill="rgba(255,255,255,0.2)"/>
    <path id="Path_1940" data-name="Path 1940" d="M-342.29,163.5a1.905,1.905,0,0,1-.343-1.619l2.324-9.676a1.938,1.938,0,0,1,1.524-1.486l7.524-1.409v-3.733l-4.914.914a1.9,1.9,0,0,1-1.732-.551,1.9,1.9,0,0,1-.478-1.754l3.41-14.248h-9.448l-4.648,17.848a1.882,1.882,0,0,1-1.5,1.39l-7.352,1.39v3.752l4.571-.857a1.859,1.859,0,0,1,1.733.571,1.944,1.944,0,0,1,.457,1.771l-3.7,14.133H-324.4l1.924-5.714h-18.3A1.916,1.916,0,0,1-342.29,163.5Z" transform="translate(1413.269 2352.06)" fill="#fff"/>
  </g>
</svg>
