<svg xmlns="http://www.w3.org/2000/svg" width="78.433" height="78.432" viewBox="0 0 78.433 78.432">
  <g id="Group_2136" data-name="Group 2136" transform="translate(-1415 -2463)">
    <ellipse id="Ellipse_116" data-name="Ellipse 116" cx="39.216" cy="39.216" rx="39.216" ry="39.216" transform="translate(1415 2463)" fill="rgba(255,255,255,0.2)"/>
    <g id="ripple" transform="translate(1349.878 2382.491)">
      <g id="Group_1993" data-name="Group 1993" transform="translate(84.122 99.509)">
        <g id="Group_1992" data-name="Group 1992" transform="translate(0 0)">
          <path id="Path_1680" data-name="Path 1680" d="M85.6,92.182a9,9,0,0,0-2.458,8.212l-.2.666a2.329,2.329,0,0,1-3.776,1.069l-.588-.521a8.751,8.751,0,0,0-4.774-4.9,9.067,9.067,0,1,0,2.679,14.846,2.332,2.332,0,0,1,2.569,2.57,9.036,9.036,0,0,0-2.474,7.308,9.132,9.132,0,0,0,4.266,6.716,8.978,8.978,0,0,0,9.506,0,9.132,9.132,0,0,0,4.266-6.716,9.029,9.029,0,0,0-2.6-7.442A8.886,8.886,0,0,0,89,112.022l-.521-.586a2.329,2.329,0,0,1,1.069-3.776l.666-.2A9.065,9.065,0,1,0,85.6,92.182ZM87.358,115.3C89.788,116.1,85.192,113.217,87.358,115.3Z" transform="translate(-61.122 -89.509)" fill="#fff"/>
        </g>
      </g>
    </g>
  </g>
</svg>
