<svg xmlns="http://www.w3.org/2000/svg" width="80" height="80" viewBox="0 0 80 80">
  <g id="Group_2131" data-name="Group 2131" transform="translate(-272.794 -302.242)">
    <g id="Group_2099" data-name="Group 2099" transform="translate(272.794 302.242)">
      <circle id="Ellipse_83" data-name="Ellipse 83" cx="40" cy="40" r="40" transform="translate(0 0)" fill="rgba(255,255,255,0.2)"/>
      <g id="user-shape" transform="translate(23.751 19.912)">
        <g id="Group_1953" data-name="Group 1953" transform="translate(0)">
          <path id="Path_1651" data-name="Path 1651" d="M118.578,17.006a8.854,8.854,0,0,0,6.327-2.491A7.992,7.992,0,0,0,127.527,8.5a7.994,7.994,0,0,0-2.622-6.012,9.282,9.282,0,0,0-12.655,0A7.993,7.993,0,0,0,109.629,8.5a7.992,7.992,0,0,0,2.622,6.012A8.856,8.856,0,0,0,118.578,17.006Z" transform="translate(-102.543 0)" fill="#fff"/>
          <path id="Path_1652" data-name="Path 1652" d="M50.258,211.388a22.071,22.071,0,0,0-.319-2.414,18.345,18.345,0,0,0-.6-2.4,11.239,11.239,0,0,0-.98-2.159,7.807,7.807,0,0,0-1.412-1.794A5.974,5.974,0,0,0,45,201.435a7.021,7.021,0,0,0-2.54-.443,2.817,2.817,0,0,0-.957.476q-.751.476-1.7,1.063a10.927,10.927,0,0,1-2.46,1.062,9.946,9.946,0,0,1-6.081,0,10.924,10.924,0,0,1-2.46-1.062q-.945-.587-1.7-1.063a2.817,2.817,0,0,0-.957-.476,7.017,7.017,0,0,0-2.54.443,5.972,5.972,0,0,0-1.948,1.184,7.817,7.817,0,0,0-1.412,1.794,11.255,11.255,0,0,0-.979,2.159,18.347,18.347,0,0,0-.6,2.4,21.942,21.942,0,0,0-.319,2.414q-.08,1.119-.08,2.292a5.439,5.439,0,0,0,1.663,4.2,6.249,6.249,0,0,0,4.419,1.538H44.257a6.249,6.249,0,0,0,4.419-1.538,5.436,5.436,0,0,0,1.663-4.2Q50.338,212.507,50.258,211.388Z" transform="translate(-18.268 -184.138)" fill="#fff"/>
        </g>
      </g>
    </g>
  </g>
</svg>
