<svg id="Group_2101" data-name="Group 2101" xmlns="http://www.w3.org/2000/svg" width="80" height="80" viewBox="0 0 80 80">
  <path id="Path_1944" data-name="Path 1944" d="M40,0A40,40,0,1,1,0,40,40,40,0,0,1,40,0Z" transform="translate(0 0)" fill="rgba(255,255,255,0.2)"/>
  <g id="handshake" transform="translate(16.035 22.449)">
    <g id="icons" transform="translate(0 0)">
      <path id="Path_1654" data-name="Path 1654" d="M99.93,155.015a4.76,4.76,0,0,1-3.157,1.268h0a2.522,2.522,0,0,1-1.986-.807,2.217,2.217,0,0,1-.5-2.211c.141-.494-.181-.527-.394-.492a3.583,3.583,0,0,1-.584.051,2.116,2.116,0,0,1-1.727-.792,2.17,2.17,0,0,1-.427-2.068c.124-.474-.235-.411-.451-.372a2.984,2.984,0,0,1-.526.05,1.989,1.989,0,0,1-1.636-.823,2.29,2.29,0,0,1-.424-2.129c.074-.329-.167-.358-.339-.322a2.9,2.9,0,0,1-.6.067,2.108,2.108,0,0,1-1.665-.809c-1.172-1.367-.451-3.625.888-4.933a3.409,3.409,0,0,1,2.377-.989,2.92,2.92,0,0,1,2.134.893,2.883,2.883,0,0,1,.767,1.871c.02.4.145.5.381.492a2.59,2.59,0,0,1,1.892.843,2.92,2.92,0,0,1,.768,1.908c.011.239-.047.459.313.457a2.7,2.7,0,0,1,1.958.847,3.3,3.3,0,0,1,.789,2.157c.016.269.06.38.319.417a3.423,3.423,0,0,1,2.084.865,2.986,2.986,0,0,1,.809,2.135A3.513,3.513,0,0,1,99.93,155.015Zm18.778-9.112a2.982,2.982,0,0,1-1.911.865,2.267,2.267,0,0,1-.85-.286c-.3-.127-.444.1-.344.3a2.224,2.224,0,0,1-.4,2.6,2.386,2.386,0,0,1-1.713.72,2.558,2.558,0,0,1-1.278-.362c-.294-.169-.445.065-.394.308a2.3,2.3,0,0,1-.613,2.189,2.434,2.434,0,0,1-2.97.394c-.181-.107-.507.057-.507.418a2.52,2.52,0,0,1-.715,1.766,2.431,2.431,0,0,1-3.474,0c-.348-.357-.906-.982-1.07-1.173a.417.417,0,0,1-.04-.041.409.409,0,0,1-.09-.326,4.46,4.46,0,0,0-1.131-3.818,4.2,4.2,0,0,0-1.828-1.115.4.4,0,0,1-.276-.3,4.308,4.308,0,0,0-1.083-2.021,4.155,4.155,0,0,0-1.751-1.088.4.4,0,0,1-.266-.283,4.136,4.136,0,0,0-2.772-2.926.4.4,0,0,1-.267-.284,4.152,4.152,0,0,0-1.021-1.844,4.354,4.354,0,0,0-3.155-1.283,4.88,4.88,0,0,0-3.374,1.347,5.011,5.011,0,0,0-1.212,1.95.4.4,0,0,1-.212.235.389.389,0,0,1-.313.006c-1.163-.484-2.478-.873-2.491-.877a.4.4,0,0,1-.286-.388V124.076a.406.406,0,0,1,.167-.329.391.391,0,0,1,.36-.052l4.668,1.655.018.007a4.9,4.9,0,0,0,1.869.387,3.8,3.8,0,0,0,1.891-.464c.244-.162,6.118-4.056,9.069-4.056a5.72,5.72,0,0,1,4.488,1.842.41.41,0,0,1,.077.333.4.4,0,0,1-.2.274c-.043.023-4.3,2.33-6.124,3.617l-.016.011a4.365,4.365,0,0,0,2.261,8.053,6.481,6.481,0,0,0,2.567-.886l.015-.008c.936-.448,3.062-1.626,4.455-2.239s2.144-.545,3.006.332c.408.415,9.405,9.743,9.427,9.766A2.613,2.613,0,0,1,118.708,145.9Zm9.833-5.786a.4.4,0,0,1-.32.4c-.124.025-5.436,1.188-6.008,1.188a3.567,3.567,0,0,1-2.591-1c-2.167-2.113-9.894-9.934-9.972-10.013a2.258,2.258,0,0,0-1.5-.535,3.238,3.238,0,0,0-1.528.424c-2.235,1.2-4.415,2.387-5.557,2.952a3.426,3.426,0,0,1-1.635.437,3.132,3.132,0,0,1-2.272-1,3.085,3.085,0,0,1-.894-2.047,3.315,3.315,0,0,1,1.953-2.911c2.832-1.748,8.764-5.132,11.13-6.411a3.979,3.979,0,0,1,1.937-.592,4.95,4.95,0,0,1,3.111,1.518c2.49,2.132,4.739,4.1,4.762,4.123a1.827,1.827,0,0,0,1.089.332,2.223,2.223,0,0,0,.466-.051c2.827-.608,7.3-1.628,7.346-1.638a.391.391,0,0,1,.335.079.407.407,0,0,1,.149.315v14.433Z" transform="translate(-80.9 -121.006)" fill="#fff"/>
    </g>
  </g>
</svg>
