<svg xmlns="http://www.w3.org/2000/svg" width="80" height="80" viewBox="0 0 80 80">
  <g id="Group_2106" data-name="Group 2106" transform="translate(-1040.347 -302.242)">
    <circle id="Ellipse_115" data-name="Ellipse 115" cx="40" cy="40" r="40" transform="translate(1040.346 302.242)" fill="rgba(255,255,255,0.2)"/>
    <g id="goal" transform="translate(1058.52 320.415)">
      <g id="Group_1957" data-name="Group 1957">
        <path id="Path_1655" data-name="Path 1655" d="M42.6,5.476l-6.389.913L37.12,0,32.26,4.86a20.649,20.649,0,1,0,5.476,5.476ZM20.653,37.433a15.489,15.489,0,1,1,9.5-27.725L26.456,13.4a10.326,10.326,0,1,0,2.738,2.738l3.694-3.694A15.489,15.489,0,0,1,20.653,37.433Zm-.875-14.615a1.936,1.936,0,0,0,2.738,0l2.891-2.891a5.159,5.159,0,1,1-2.738-2.738L19.778,20.08A1.936,1.936,0,0,0,19.778,22.818Z" fill="#fff"/>
      </g>
    </g>
  </g>
</svg>
