<svg xmlns="http://www.w3.org/2000/svg" xmlns:xlink="http://www.w3.org/1999/xlink" width="20.742" height="30" viewBox="0 0 20.742 30">
  <defs>
    <linearGradient id="linear-gradient" x1="0.896" y1="0.086" x2="0.166" y2="0.94" gradientUnits="objectBoundingBox">
      <stop offset="0" stop-color="#c366e7"/>
      <stop offset="1" stop-color="#886cfe"/>
    </linearGradient>
  </defs>
  <g id="smartphone" transform="translate(-79)">
    <g id="Group_1951" data-name="Group 1951" transform="translate(79)">
      <g id="Group_1950" data-name="Group 1950" transform="translate(0)">
        <path id="Path_1648" data-name="Path 1648" d="M98.57,20.632a1.172,1.172,0,0,0,1.172-1.172V4.687A4.693,4.693,0,0,0,95.055,0H83.688A4.693,4.693,0,0,0,79,4.687V25.312A4.693,4.693,0,0,0,83.688,30H95.055a4.693,4.693,0,0,0,4.688-4.688,1.172,1.172,0,1,0-2.344,0,2.346,2.346,0,0,1-2.344,2.344H83.688a2.346,2.346,0,0,1-2.344-2.344V4.687a2.346,2.346,0,0,1,2.344-2.344H95.055A2.346,2.346,0,0,1,97.4,4.687V19.46A1.172,1.172,0,0,0,98.57,20.632Z" transform="translate(-79)" fill="url(#linear-gradient)"/>
        <circle id="Ellipse_79" data-name="Ellipse 79" cx="1.213" cy="1.213" r="1.213" transform="translate(9.158 23.277)" fill="url(#linear-gradient)"/>
        <path id="Path_1649" data-name="Path 1649" d="M220.851,72.335a1.213,1.213,0,0,0-1.213-1.213h-2.425a1.213,1.213,0,0,0,0,2.425h2.425A1.213,1.213,0,0,0,220.851,72.335Z" transform="translate(-208.054 -66.81)" fill="url(#linear-gradient)"/>
      </g>
    </g>
  </g>
</svg>
