<svg xmlns="http://www.w3.org/2000/svg" xmlns:xlink="http://www.w3.org/1999/xlink" width="30" height="23.848" viewBox="0 0 30 23.848">
  <defs>
    <linearGradient id="linear-gradient" x1="0.292" y1="1.281" x2="0.756" y2="-1.273" gradientUnits="objectBoundingBox">
      <stop offset="0" stop-color="#7170fe"/>
      <stop offset="1" stop-color="#c366e7"/>
    </linearGradient>
  </defs>
  <g id="Group_1949" data-name="Group 1949" transform="translate(0 0)">
    <g id="Group_1948" data-name="Group 1948" transform="translate(0 0)">
      <path id="Path_1645" data-name="Path 1645" d="M210.139,123.844a1.18,1.18,0,0,0-1.5-.141c-1.766,1.2-10.624,7.257-11.576,8.208a3.541,3.541,0,0,0,5.007,5.007c.952-.952,7-9.81,8.209-11.576A1.181,1.181,0,0,0,210.139,123.844ZM200.4,135.25a1.18,1.18,0,0,1-1.669-1.669c.37-.366,2.885-2.159,5.979-4.31C202.561,132.365,200.767,134.88,200.4,135.25Z" transform="translate(-184.675 -119.383)" fill="url(#linear-gradient)"/>
      <path id="Path_1646" data-name="Path 1646" d="M5.39,72.95l-1.443.706a12.627,12.627,0,0,1-.788-10.649l1.653.8a1.171,1.171,0,0,0,1.011-2.113L4.191,60.9a12.635,12.635,0,0,1,9.6-6.006v1.763a1.169,1.169,0,1,0,2.338,0V54.9a12.452,12.452,0,0,1,4.019,1.062,1.171,1.171,0,0,0,.962-2.136A14.971,14.971,0,0,0,0,67.5a14.969,14.969,0,0,0,2.535,8.327,1.166,1.166,0,0,0,1.484.4l2.4-1.172A1.171,1.171,0,0,0,5.39,72.95Z" transform="translate(0 -52.499)" fill="url(#linear-gradient)"/>
      <path id="Path_1647" data-name="Path 1647" d="M395.863,192.189a1.18,1.18,0,1,0-2.151.971,12.705,12.705,0,0,1-.508,11.448l-1.521-.724a1.18,1.18,0,1,0-1.015,2.131l2.478,1.18a1.18,1.18,0,0,0,1.489-.41,15.071,15.071,0,0,0,1.228-14.6Z" transform="translate(-367.194 -183.462)" fill="url(#linear-gradient)"/>
    </g>
  </g>
</svg>
