<svg xmlns="http://www.w3.org/2000/svg" xmlns:xlink="http://www.w3.org/1999/xlink" width="30" height="27.485" viewBox="0 0 30 27.485">
  <defs>
    <linearGradient id="linear-gradient" x1="0.5" x2="0.5" y2="1" gradientUnits="objectBoundingBox">
      <stop offset="0" stop-color="#c366e7"/>
      <stop offset="1" stop-color="#886cfe"/>
    </linearGradient>
  </defs>
  <g id="folder" transform="translate(0 -21.463)">
    <g id="Group_1963" data-name="Group 1963" transform="translate(0 21.463)">
      <g id="Group_1962" data-name="Group 1962" transform="translate(0 0)">
        <path id="Path_1657" data-name="Path 1657" d="M0,410.506c0-.007,0,.007,0,0Z" transform="translate(0 -387.979)" fill="url(#linear-gradient)"/>
        <path id="Path_1658" data-name="Path 1658" d="M40,101.437v0C40,101.444,40,101.439,40,101.437Z" transform="translate(-37.522 -96.48)" fill="url(#linear-gradient)"/>
        <path id="Path_1659" data-name="Path 1659" d="M28.829,39.571A1.172,1.172,0,0,0,30,38.4V28.614A3.515,3.515,0,0,0,26.486,25.1H13.71a4.7,4.7,0,0,0-4.567-3.634H4.688A4.693,4.693,0,0,0,0,26.15V44.26a4.693,4.693,0,0,0,4.687,4.687H25.313A4.693,4.693,0,0,0,30,44.26a1.172,1.172,0,0,0-2.344,0A2.346,2.346,0,0,1,25.313,46.6H4.688A2.346,2.346,0,0,1,2.345,44.26V26.15s0,0,0,0a2.346,2.346,0,0,1,2.343-2.342H9.142a2.346,2.346,0,0,1,2.343,2.344v.118a1.172,1.172,0,0,0,1.172,1.172H26.486a1.172,1.172,0,0,1,1.172,1.172V38.4A1.172,1.172,0,0,0,28.829,39.571Z" transform="translate(-0.001 -21.463)" fill="url(#linear-gradient)"/>
      </g>
    </g>
  </g>
</svg>
