<svg xmlns="http://www.w3.org/2000/svg" xmlns:xlink="http://www.w3.org/1999/xlink" width="30" height="25.774" viewBox="0 0 30 25.774">
  <defs>
    <linearGradient id="linear-gradient" x1="1.183" x2="-0.155" y2="0.949" gradientUnits="objectBoundingBox">
      <stop offset="0" stop-color="#886cfe"/>
      <stop offset="1" stop-color="#c366e7"/>
    </linearGradient>
  </defs>
  <g id="monitor" transform="translate(0 -36.061)">
    <g id="Group_1978" data-name="Group 1978" transform="translate(0 36.061)">
      <path id="Path_1667" data-name="Path 1667" d="M28.828,47.78A1.172,1.172,0,0,0,30,46.608V40.749a4.693,4.693,0,0,0-4.687-4.687H4.688A4.693,4.693,0,0,0,0,40.749V52.467a4.693,4.693,0,0,0,4.688,4.688h9.141v2.337h-4.1a1.172,1.172,0,0,0,0,2.344H20.273a1.172,1.172,0,1,0,0-2.344h-4.1V57.155h9.141A4.693,4.693,0,0,0,30,52.467a1.172,1.172,0,0,0-2.344,0,2.346,2.346,0,0,1-2.344,2.344H4.688a2.346,2.346,0,0,1-2.344-2.344V40.749A2.346,2.346,0,0,1,4.688,38.4H25.313a2.346,2.346,0,0,1,2.344,2.344v5.859A1.172,1.172,0,0,0,28.828,47.78Z" transform="translate(0 -36.061)" fill="url(#linear-gradient)"/>
    </g>
  </g>
</svg>
