<svg xmlns="http://www.w3.org/2000/svg" width="25.373" height="25.992" viewBox="0 0 25.373 25.992">
  <path id="Union_3" data-name="Union 3" d="M-10751.893,6537.7a1.759,1.759,0,0,1-.149-.219l-4.332-7.5a1.86,1.86,0,0,1,.681-2.538,1.856,1.856,0,0,1,2.535.681l1.179,2.035v-12.827a1.856,1.856,0,0,1,1.854-1.856,1.856,1.856,0,0,1,1.856,1.856v12.827l1.179-2.035a1.856,1.856,0,0,1,2.535-.681,1.86,1.86,0,0,1,.681,2.538l-4.332,7.5a1.581,1.581,0,0,1-.151.219,1.853,1.853,0,0,1-1.768,1.289A1.856,1.856,0,0,1-10751.893,6537.7Zm-12.466-3.043v-12.827l-1.175,2.035a1.858,1.858,0,0,1-2.538.681,1.858,1.858,0,0,1-.679-2.538l4.333-7.5a1.655,1.655,0,0,1,.148-.222,1.856,1.856,0,0,1,1.768-1.29,1.854,1.854,0,0,1,1.768,1.29,1.754,1.754,0,0,1,.148.222l4.332,7.5a1.858,1.858,0,0,1-.678,2.538,1.853,1.853,0,0,1-2.535-.681l-1.179-2.038v12.83a1.854,1.854,0,0,1-1.856,1.857A1.857,1.857,0,0,1-10764.358,6534.66Z" transform="translate(10768.999 -6513)" fill="#999"/>
</svg>
