<svg xmlns="http://www.w3.org/2000/svg" width="174" height="24.353" viewBox="0 0 174 24.353">
  <g id="Group_2476" data-name="Group 2476" transform="translate(-614 -839)">
    <text id="Add_Photo_Video" data-name="Add Photo/ Video" transform="translate(660 858)" fill="#999" font-size="16" font-family="Lato-Semibold, Lato" font-weight="600"><tspan x="0" y="0">Add Photo/ Video</tspan></text>
    <g id="images-interface-symbol" transform="translate(614 827.927)">
      <g id="Group_2285" data-name="Group 2285" transform="translate(0 11.073)">
        <path id="Path_1981" data-name="Path 1981" d="M29.887,11.073H2.141A2.143,2.143,0,0,0,0,13.213V33.284a2.143,2.143,0,0,0,2.141,2.141H29.887a2.144,2.144,0,0,0,2.141-2.141V13.213A2.145,2.145,0,0,0,29.887,11.073Zm.37,22.212a.37.37,0,0,1-.37.369H2.14a.371.371,0,0,1-.37-.369V21.993l3.187-3.187a.886.886,0,1,0-1.253-1.253L1.771,19.49V18.369l3.214-3.215A.885.885,0,0,0,3.732,13.9L1.771,15.865v-2.65a.369.369,0,0,1,.369-.369H29.885a.369.369,0,0,1,.369.369l0,20.071Z" transform="translate(0 -11.073)" fill="#999"/>
        <path id="Path_1982" data-name="Path 1982" d="M23.657,24.469a.884.884,0,0,0-.712-.438.9.9,0,0,0-.759.349l-4.727,6.247-4.235-4.235a.885.885,0,0,0-1.362.133L5.829,35.547a.885.885,0,0,0,.735,1.377h22.8a.885.885,0,0,0,.765-1.331ZM8.222,35.155l4.511-6.747,4.191,4.19a.882.882,0,0,0,1.331-.091l4.538-6,5.032,8.644Z" transform="translate(-1.951 -15.524)" fill="#999"/>
        <path id="Path_1983" data-name="Path 1983" d="M27.991,20.132a3.1,3.1,0,0,0,.958-.147,4.084,4.084,0,0,0,1.92-.017,2.392,2.392,0,0,0,.637.086c.045,0,.089-.011.133-.013a2.741,2.741,0,0,1-.421-1.459c0-.014,0-.028,0-.042a.875.875,0,0,1-.157-.062.33.33,0,0,0-.286-.018,2.544,2.544,0,0,1-1.769.016.329.329,0,0,0-.278.018,1.57,1.57,0,0,1-.74.174c-.644,0-1.094-.329-1.094-.625s.41-.6,1.023-.622a.333.333,0,0,0,.29-.2,1.8,1.8,0,0,1,1.665-.82,1.834,1.834,0,0,1,1.652.794.32.32,0,0,0,.037.047,2.785,2.785,0,0,1,1.071-1.076c-.018-.011-.035-.022-.054-.032a3.373,3.373,0,0,0-2.705-1.2,3.447,3.447,0,0,0-2.63,1.1,2.145,2.145,0,0,0-1.812,2A2.331,2.331,0,0,0,27.991,20.132Z" transform="translate(-8.738 -12.401)" fill="#999"/>
        <path id="Path_1984" data-name="Path 1984" d="M38.181,16.905a2.612,2.612,0,0,0-1.285.337,2.65,2.65,0,0,0-1.017,1.023,2.594,2.594,0,0,0-.326,1.23c0,.014,0,.026,0,.04a2.629,2.629,0,1,0,2.63-2.63Zm0,3.576a.944.944,0,0,1-.258-1.854.921.921,0,0,1,.257-.041.947.947,0,0,1,0,1.895Z" transform="translate(-12.213 -13.076)" fill="#999"/>
      </g>
    </g>
  </g>
</svg>
