<svg xmlns="http://www.w3.org/2000/svg" width="29.571" height="35.658" viewBox="0 0 29.571 35.658">
  <g id="alarm" transform="translate(0.159 0.15)">
    <g id="Group_1974" data-name="Group 1974" transform="translate(0)">
      <g id="Group_1973" data-name="Group 1973" transform="translate(0)">
        <path id="Path_1665" data-name="Path 1665" d="M73.571,26.305a1.381,1.381,0,1,0-2.715.509A1.382,1.382,0,0,1,69.5,28.452H48.534a1.382,1.382,0,0,1-1.357-1.638,14.254,14.254,0,0,1,1.938-4.8,10.924,10.924,0,0,0,1.878-5.859V14.088a8.042,8.042,0,0,1,7.893-8.01h.261a8.029,8.029,0,0,1,7.867,8.01V16.16A9.773,9.773,0,0,0,68.4,21.1a1.381,1.381,0,1,0,2.429-1.315,7.034,7.034,0,0,1-1.055-3.625V14.088A10.787,10.787,0,0,0,60.384,3.4V1.381a1.381,1.381,0,1,0-2.762,0V3.4A10.823,10.823,0,0,0,48.23,14.088V16.16a8.328,8.328,0,0,1-1.514,4.488,16.784,16.784,0,0,0-2.255,5.658,4.145,4.145,0,0,0,4.072,4.909h6.353a4.143,4.143,0,1,0,8.287,0H69.5a4.145,4.145,0,0,0,4.072-4.909ZM59.03,32.6a1.383,1.383,0,0,1-1.381-1.381h2.762A1.383,1.383,0,0,1,59.03,32.6Z" transform="translate(-44.39 0)" fill="#999" stroke="#999" stroke-width="0.3"/>
      </g>
    </g>
  </g>
</svg>
