<svg xmlns="http://www.w3.org/2000/svg" width="80" height="80" viewBox="0 0 80 80">
  <g id="Group_2089" data-name="Group 2089" transform="translate(-270 -302)">
    <circle id="Ellipse_83" data-name="Ellipse 83" cx="40" cy="40" r="40" transform="translate(270 302)" fill="rgba(255,255,255,0.2)"/>
    <g id="user-shape" transform="translate(279.732 328)">
      <g id="Group_1953" data-name="Group 1953" transform="translate(18.268)">
        <path id="Path_1651" data-name="Path 1651" d="M116.616,13.231a6.927,6.927,0,0,0,4.94-1.938A6.208,6.208,0,0,0,123.6,6.615a6.209,6.209,0,0,0-2.047-4.677,7.266,7.266,0,0,0-9.88,0,6.208,6.208,0,0,0-2.047,4.677,6.207,6.207,0,0,0,2.047,4.677A6.928,6.928,0,0,0,116.616,13.231Z" transform="translate(-104.116)" fill="#fff"/>
        <path id="Path_1652" data-name="Path 1652" d="M43.205,209.08a17.14,17.14,0,0,0-.249-1.878,14.248,14.248,0,0,0-.471-1.869,8.734,8.734,0,0,0-.764-1.68,6.075,6.075,0,0,0-1.1-1.4,4.658,4.658,0,0,0-1.518-.921,5.483,5.483,0,0,0-1.98-.345,2.2,2.2,0,0,0-.746.37q-.585.37-1.323.827a8.527,8.527,0,0,1-1.918.826,7.768,7.768,0,0,1-4.741,0,8.525,8.525,0,0,1-1.918-.826q-.737-.457-1.323-.827a2.2,2.2,0,0,0-.746-.37,5.479,5.479,0,0,0-1.98.345,4.657,4.657,0,0,0-1.518.921,6.083,6.083,0,0,0-1.1,1.4,8.747,8.747,0,0,0-.763,1.68,14.249,14.249,0,0,0-.471,1.869,17.038,17.038,0,0,0-.249,1.878q-.062.87-.062,1.783a4.227,4.227,0,0,0,1.3,3.265,4.877,4.877,0,0,0,3.445,1.2H38.527a4.877,4.877,0,0,0,3.445-1.2,4.225,4.225,0,0,0,1.3-3.265Q43.268,209.95,43.205,209.08Z" transform="translate(-18.268 -188.053)" fill="#fff"/>
      </g>
    </g>
  </g>
</svg>
