<svg xmlns="http://www.w3.org/2000/svg" width="27.067" height="29" viewBox="0 0 27.067 29">
  <g id="calendar" transform="translate(-2)">
    <path id="Path_1923" data-name="Path 1923" d="M28.584,1.933H25.2V.483A.483.483,0,0,0,24.717,0H21.333a.483.483,0,0,0-.483.483v1.45H10.217V.483A.483.483,0,0,0,9.733,0H6.35a.483.483,0,0,0-.483.483v1.45H2.483A.483.483,0,0,0,2,2.417v26.1A.483.483,0,0,0,2.483,29h26.1a.483.483,0,0,0,.483-.483V2.417A.483.483,0,0,0,28.584,1.933ZM21.817.967h2.417v2.9H21.817V.967ZM6.833.967H9.25v2.9H6.833V.967ZM2.967,2.9h2.9V4.35a.483.483,0,0,0,.483.483H9.733a.483.483,0,0,0,.483-.483V2.9H20.85V4.35a.483.483,0,0,0,.483.483h3.383A.483.483,0,0,0,25.2,4.35V2.9h2.9V7.25H2.967Zm0,25.134V8.217H28.1V28.034Z" fill="#886cfe"/>
    <path id="Path_1924" data-name="Path 1924" d="M24.05,23H11V37.017H29.367V23H24.05Zm-3.383.967H24.05V27.35H20.667ZM24.05,31.7H20.667V28.317H24.05Zm-7.733-3.383H19.7V31.7H16.317Zm0-4.35H19.7V27.35H16.317Zm-4.35,0H15.35V27.35H11.967Zm0,4.35H15.35V31.7H11.967ZM15.35,36.05H11.967V32.667H15.35Zm4.35,0H16.317V32.667H19.7Zm4.35,0H20.667V32.667H24.05Zm4.35,0H25.017V32.667H28.4Zm0-4.35H25.017V28.317H28.4Zm0-7.733V27.35H25.017V23.967Z" transform="translate(-4.65 -11.883)" fill="#886cfe"/>
  </g>
</svg>
