<svg xmlns="http://www.w3.org/2000/svg" width="18" height="15.9" viewBox="0 0 18 15.9">
  <g id="check-mark" transform="translate(0 -20.566)">
    <path id="Path_2197" data-name="Path 2197" d="M17.214,20.688c-.812-.437-1.718.406-2.249.906-1.218,1.187-2.249,2.562-3.405,3.811C10.279,26.78,9.092,28.154,7.78,29.5A11.271,11.271,0,0,0,5.718,32a41.006,41.006,0,0,0-3.343-3.249C1.469,28.061-.03,27.561,0,29.217c.062,2.156,1.968,4.467,3.374,5.936a3.568,3.568,0,0,0,2.281,1.312c1.093.062,2.218-1.25,2.874-1.968,1.156-1.25,2.093-2.655,3.155-3.936,1.375-1.687,2.78-3.343,4.124-5.061C16.652,24.437,19.308,21.813,17.214,20.688Zm-15.839,8.4a.236.236,0,0,0-.125.031A1.52,1.52,0,0,1,.907,29h0Q1.048,28.9,1.376,29.092Z" transform="translate(0)" fill="#57cf34"/>
  </g>
</svg>
