<svg xmlns="http://www.w3.org/2000/svg" width="33.068" height="33.068" viewBox="0 0 33.068 33.068">
  <g id="Group_2477" data-name="Group 2477" transform="translate(-1676 -803)">
    <circle id="Ellipse_158" data-name="Ellipse 158" cx="16.534" cy="16.534" r="16.534" transform="translate(1676 803)" fill="#fff"/>
    <path id="garbage" d="M18.891,1.71h-4A2.265,2.265,0,0,0,14.373.367a1.205,1.205,0,0,0-.9-.367H10.629a1.205,1.205,0,0,0-.9.367A2.265,2.265,0,0,0,9.216,1.71H5.785a.285.285,0,0,0,0,.57h.582l.546,13.112a1.382,1.382,0,0,0,1.4,1.419h8.055a1.381,1.381,0,0,0,1.4-1.413L18.31,2.279h.582a.285.285,0,1,0,0-.57ZM9.774,14.246a.285.285,0,0,1-.57,0v-9.4a.285.285,0,1,1,.57,0Zm2.849,0a.285.285,0,0,1-.57,0v-9.4a.285.285,0,1,1,.57,0Zm2.849,0a.285.285,0,0,1-.57,0v-9.4a.285.285,0,1,1,.57,0ZM10.142.764A.646.646,0,0,1,10.629.57h2.849a.646.646,0,0,1,.487.194,1.677,1.677,0,0,1,.353.946H9.789A1.678,1.678,0,0,1,10.142.764Z" transform="translate(1680.5 810.645)" fill="#886cfe"/>
  </g>
</svg>
