<svg xmlns="http://www.w3.org/2000/svg" width="80" height="80" viewBox="0 0 80 80">
  <g id="Group_2542" data-name="Group 2542" transform="translate(-1613 -575)">
    <g id="Group_2064" data-name="Group 2064" transform="translate(0 265)">
      <g id="Group_2061" data-name="Group 2061" transform="translate(255 -9)">
        <circle id="Ellipse_112" data-name="Ellipse 112" cx="40" cy="40" r="40" transform="translate(1358 319)" fill="rgba(255,255,255,0.2)"/>
      </g>
    </g>
    <g id="document" transform="translate(1551.71 594.734)">
      <path id="Path_1935" data-name="Path 1935" d="M102.364,39.037H115.4a2.433,2.433,0,0,0,2.432-2.432V2.432A2.433,2.433,0,0,0,115.4,0H98.029V.8a2.365,2.365,0,0,1,.014.257V7.723a3.427,3.427,0,0,1-3.425,3.425H87.957c-.069,0-.143,0-.211-.009H86.9V36.605a2.433,2.433,0,0,0,2.432,2.432h13.032Zm.492-8.265h-8.5a1.149,1.149,0,0,1,0-2.3h8.5a1.149,1.149,0,1,1,0,2.3Zm8.5-5.866h-17a1.149,1.149,0,0,1,0-2.3h17a1.149,1.149,0,1,1,0,2.3Zm-17-8.527h17a1.149,1.149,0,1,1,0,2.3h-17a1.149,1.149,0,0,1,0-2.3Z" transform="translate(-0.61 0.265)" fill="#fff"/>
      <path id="Path_1936" data-name="Path 1936" d="M88.574,10.532h6.679a2.041,2.041,0,0,0,2.023-2.023V1.825A1.023,1.023,0,0,0,96.246.8a1,1,0,0,0-.717.3L87.847,8.785A1.024,1.024,0,0,0,88.574,10.532Z" transform="translate(-0.616 -0.763)" fill="#fff"/>
    </g>
  </g>
</svg>
