<svg id="email" xmlns="http://www.w3.org/2000/svg" width="36.458" height="27.842" viewBox="0 0 36.458 27.842">
  <g id="Group_1970" data-name="Group 1970" transform="translate(0 0)">
    <path id="Path_1664" data-name="Path 1664" d="M35.034,76.949a1.424,1.424,0,0,0,1.424-1.424V66.2a5.7,5.7,0,0,0-5.7-5.7H5.7A5.7,5.7,0,0,0,0,66.2V82.645a5.7,5.7,0,0,0,5.7,5.7H30.762a5.7,5.7,0,0,0,5.7-5.7,1.424,1.424,0,1,0-2.848,0,2.852,2.852,0,0,1-2.848,2.848H5.7a2.852,2.852,0,0,1-2.848-2.848V66.5l12.373,7.694a5.661,5.661,0,0,0,6.016,0L33.61,66.5v9.026A1.424,1.424,0,0,0,35.034,76.949Zm-15.3-5.176a2.831,2.831,0,0,1-3.008,0L4.037,63.883a2.833,2.833,0,0,1,1.66-.535H30.762a2.833,2.833,0,0,1,1.66.535Z" transform="translate(0 -60.5)" fill="#999"/>
  </g>
</svg>
