<svg xmlns="http://www.w3.org/2000/svg" xmlns:xlink="http://www.w3.org/1999/xlink" width="76.61" height="76.61" viewBox="0 0 76.61 76.61">
  <defs>
    <filter id="Rectangle_281" x="0" y="0" width="76.61" height="76.61" filterUnits="userSpaceOnUse">
      <feOffset input="SourceAlpha"/>
      <feGaussianBlur stdDeviation="3" result="blur"/>
      <feFlood flood-color="#886cfe" flood-opacity="0.298"/>
      <feComposite operator="in" in2="blur"/>
      <feComposite in="SourceGraphic"/>
    </filter>
  </defs>
  <g id="Group_2002" data-name="Group 2002" transform="translate(-395 -683)">
    <g transform="matrix(1, 0, 0, 1, 395, 683)" filter="url(#Rectangle_281)">
      <rect id="Rectangle_281-2" data-name="Rectangle 281" width="58.61" height="58.61" rx="29" transform="translate(9 9)" fill="#74c6f1"/>
    </g>
    <g id="facebook-letter-logo" transform="translate(281.68 710)">
      <g id="Group_1997" data-name="Group 1997" transform="translate(146.32)">
        <path id="Path_1690" data-name="Path 1690" d="M156.167,0h-2.379a5.119,5.119,0,0,0-3.921,1.3,5.456,5.456,0,0,0-1.192,3.817v1.6a.767.767,0,0,1-.767.767h-.822a.767.767,0,0,0-.767.767v2.4a.767.767,0,0,0,.767.767h.822a.767.767,0,0,1,.767.767v9.884a.767.767,0,0,0,.767.767h3.191a.767.767,0,0,0,.767-.767V12.184a.767.767,0,0,1,.767-.767h1.612a.871.871,0,0,0,.847-.762l.255-2.41a.675.675,0,0,0-.686-.762h-2.028a.767.767,0,0,1-.767-.767v-1.2a4.308,4.308,0,0,1,.042-.686,1.335,1.335,0,0,1,.187-.478.764.764,0,0,1,.471-.326,3.356,3.356,0,0,1,.866-.09h1.2a.767.767,0,0,0,.767-.767V.767A.766.766,0,0,0,156.167,0Z" transform="translate(-146.32)" fill="#fff"/>
      </g>
    </g>
  </g>
</svg>
