<svg xmlns="http://www.w3.org/2000/svg" width="160" height="60" viewBox="0 0 160 60">
  <g id="Group_2165" data-name="Group 2165" transform="translate(-787 -752)">
    <g id="Rectangle_314" data-name="Rectangle 314" transform="translate(787 752)" fill="none" stroke="#000" stroke-width="2" opacity="0.1">
      <rect width="160" height="60" rx="30" stroke="none"/>
      <rect x="1" y="1" width="158" height="58" rx="29" fill="none"/>
    </g>
    <g id="Group_2162" data-name="Group 2162" transform="translate(11 -16)">
      <text id="Facebook" transform="translate(832 805)" fill="#1877f2" font-size="18" font-family="Lato-Bold, Lato" font-weight="700"><tspan x="0" y="0">Facebook</tspan></text>
      <g id="facebook-logo" transform="translate(677.381 786)">
        <path id="Path_1687" data-name="Path 1687" d="M132.938,7.734V5.7a4.486,4.486,0,0,1,.043-.709,1.377,1.377,0,0,1,.194-.494.79.79,0,0,1,.487-.337,3.467,3.467,0,0,1,.9-.093h2.034V0h-3.251a5.292,5.292,0,0,0-4.054,1.339,5.641,5.641,0,0,0-1.232,3.946V7.734h-2.435V11.8h2.435V23.6h4.884V11.8h3.251l.43-4.068Z" transform="translate(0)" fill="#1877f2"/>
      </g>
    </g>
  </g>
</svg>
