<svg xmlns="http://www.w3.org/2000/svg" width="20.709" height="25.455" viewBox="0 0 20.709 25.455">
  <path id="garbage" d="M25.777,2.589H19.718A3.429,3.429,0,0,0,18.936.556,1.825,1.825,0,0,0,17.58,0H13.266a1.825,1.825,0,0,0-1.356.556,3.429,3.429,0,0,0-.782,2.032h-5.2a.431.431,0,0,0,0,.863h.881l.826,19.855a2.093,2.093,0,0,0,2.117,2.148h12.2a2.091,2.091,0,0,0,2.117-2.139L24.9,3.451h.881a.431.431,0,1,0,0-.863ZM11.972,21.572a.431.431,0,0,1-.863,0V7.334a.431.431,0,0,1,.863,0Zm4.314,0a.431.431,0,0,1-.863,0V7.334a.431.431,0,1,1,.863,0Zm4.314,0a.431.431,0,0,1-.863,0V7.334a.431.431,0,1,1,.863,0ZM12.529,1.157a.978.978,0,0,1,.737-.294H17.58a.978.978,0,0,1,.737.294,2.539,2.539,0,0,1,.535,1.432H11.994A2.542,2.542,0,0,1,12.529,1.157Z" transform="translate(-5.5)" fill="#999"/>
</svg>
