<svg xmlns="http://www.w3.org/2000/svg" width="14" height="14" viewBox="0 0 14 14">
  <g id="google-plus" transform="translate(0 0.001)">
    <g id="Group_2250" data-name="Group 2250" transform="translate(0 -0.001)">
      <circle id="XMLID_30_" cx="7" cy="7" r="7" transform="translate(0 0)" fill="#dc4e41"/>
    </g>
    <g id="Group_2252" data-name="Group 2252" transform="translate(2.364 4.373)">
      <path id="Path_1967" data-name="Path 1967" d="M19.519,38.382A2.931,2.931,0,0,0,21.5,41.154a2.892,2.892,0,0,0,3.161-.843,3.314,3.314,0,0,0,.594-2.345c-.935-.008-1.87-.006-2.8,0,0,.333,0,.665,0,1,.56.015,1.12.008,1.68.02a1.62,1.62,0,0,1-.952,1.11,1.852,1.852,0,1,1-1.247-3.485,2.059,2.059,0,0,1,1.733.339c.26-.244.5-.5.743-.767a2.948,2.948,0,0,0-4.886,2.2Z" transform="translate(-19.517 -35.446)" fill="#dc4e41"/>
      <path id="Path_1968" data-name="Path 1968" d="M73.286,48.668c0,.279-.006.559-.007.837l-.837.006v.834c.279,0,.559,0,.837.006,0,.279,0,.557.006.837.277,0,.556,0,.834,0,0-.28,0-.559.006-.839l.837,0v-.834l-.837-.006c0-.279,0-.559-.006-.837Z" transform="translate(-65.733 -46.992)" fill="#dc4e41"/>
      <g id="Group_2251" data-name="Group 2251">
        <path id="Path_1969" data-name="Path 1969" d="M19.519,38.381a2.948,2.948,0,0,1,4.886-2.2c-.239.263-.483.524-.743.767a2.059,2.059,0,0,0-1.733-.339,1.852,1.852,0,1,0,1.247,3.485,1.62,1.62,0,0,0,.952-1.11c-.56-.011-1.12,0-1.68-.02,0-.333,0-.665,0-1,.934,0,1.869,0,2.8,0a3.314,3.314,0,0,1-.594,2.345,2.892,2.892,0,0,1-3.161.843A2.93,2.93,0,0,1,19.519,38.381Z" transform="translate(-19.517 -35.445)" fill="#fff"/>
        <path id="Path_1970" data-name="Path 1970" d="M73.286,48.668h.833c0,.279,0,.559.006.837l.837.006v.834l-.837,0c0,.28,0,.559-.006.839-.279,0-.557,0-.834,0,0-.28,0-.559-.006-.837-.279,0-.559,0-.837-.006v-.834l.837-.006C73.281,49.227,73.283,48.947,73.286,48.668Z" transform="translate(-65.733 -46.992)" fill="#fff"/>
      </g>
    </g>
  </g>
</svg>
