<svg xmlns="http://www.w3.org/2000/svg" width="66" height="66" viewBox="0 0 66 66">
  <g id="google-plus" transform="translate(0 0.001)">
    <g id="Group_2250" data-name="Group 2250" transform="translate(0 -0.001)">
      <circle id="XMLID_30_" cx="33" cy="33" r="33" transform="translate(0 0)" fill="#dc4e41"/>
    </g>
    <g id="Group_2252" data-name="Group 2252" transform="translate(8.152 18.555)">
      <path id="Path_1967" data-name="Path 1967" d="M19.526,51.208A15.732,15.732,0,0,0,30.139,66.09c5.862,1.969,13.07.5,16.97-4.524,2.848-3.518,3.5-8.207,3.187-12.589-5.02-.045-10.041-.03-15.053-.022-.008,1.788,0,3.57.007,5.359,3.006.083,6.013.045,9.018.105a8.7,8.7,0,0,1-5.111,5.959,9.942,9.942,0,1,1-6.7-18.707c3.224-1.134,6.546.143,9.3,1.819,1.4-1.308,2.706-2.706,3.991-4.119a15.742,15.742,0,0,0-11.3-3.878C26.328,35.591,19.218,43.092,19.526,51.208Z" transform="translate(-19.517 -35.445)" fill="#dc4e41"/>
      <path id="Path_1968" data-name="Path 1968" d="M76.974,48.668c-.015,1.5-.031,3-.038,4.494-1.5.015-3,.022-4.494.03v4.479c1.5.008,3,.015,4.494.031.015,1.5.015,2.991.03,4.494,1.488,0,2.984-.007,4.479,0,.008-1.5.015-3,.031-4.5l4.494-.022V53.193c-1.5-.008-3-.015-4.494-.03-.008-1.5-.022-3-.031-4.494Z" transform="translate(-36.425 -39.669)" fill="#dc4e41"/>
      <g id="Group_2251" data-name="Group 2251">
        <path id="Path_1969" data-name="Path 1969" d="M19.526,51.208c-.308-8.117,6.8-15.618,14.926-15.715a15.741,15.741,0,0,1,11.3,3.878c-1.286,1.413-2.594,2.811-3.991,4.119-2.759-1.676-6.081-2.954-9.3-1.819a9.942,9.942,0,1,0,6.7,18.707,8.7,8.7,0,0,0,5.111-5.959c-3.006-.06-6.013-.022-9.018-.105-.007-1.788-.015-3.57-.007-5.359,5.013-.007,10.033-.022,15.053.022.308,4.382-.338,9.072-3.187,12.589-3.9,5.02-11.108,6.494-16.97,4.524A15.732,15.732,0,0,1,19.526,51.208Z" transform="translate(-19.517 -35.445)" fill="#fff"/>
        <path id="Path_1970" data-name="Path 1970" d="M76.974,48.668h4.471c.008,1.5.022,3,.031,4.494,1.5.015,3,.022,4.494.03v4.479l-4.494.022c-.015,1.5-.022,3-.031,4.5-1.5-.008-2.992,0-4.479,0-.014-1.5-.014-3-.03-4.494-1.5-.016-3-.022-4.494-.031V53.191q2.244-.011,4.494-.03C76.944,51.667,76.959,50.164,76.974,48.668Z" transform="translate(-36.425 -39.669)" fill="#fff"/>
      </g>
    </g>
  </g>
</svg>
