<svg xmlns="http://www.w3.org/2000/svg" width="50" height="50" viewBox="0 0 50 50">
  <g id="Group_2137" data-name="Group 2137" transform="translate(-301 -2209)">
    <g id="upload" transform="translate(212.143 2180.331)">
      <g id="Group_1954" data-name="Group 1954" transform="translate(107.856 46.669)">
        <path id="Path_1653" data-name="Path 1653" d="M108.3,51.679l4.564-4.563a1.522,1.522,0,0,1,1.08-.447h.022a1.524,1.524,0,0,1,1.081.447l4.563,4.563a1.528,1.528,0,1,1-2.161,2.161l-2.017-2.017v8.188a1.528,1.528,0,1,1-3.057,0V51.927l-1.914,1.913a1.529,1.529,0,0,1-2.162-2.161Z" transform="translate(-107.856 -46.669)" fill="#00c203"/>
      </g>
    </g>
    <g id="Ellipse_87" data-name="Ellipse 87" transform="translate(301 2209)" fill="none" stroke="#00c203" stroke-width="3" opacity="0.2">
      <circle cx="25" cy="25" r="25" stroke="none"/>
      <circle cx="25" cy="25" r="23.5" fill="none"/>
    </g>
  </g>
</svg>
