<svg xmlns="http://www.w3.org/2000/svg" width="153" height="31.5" viewBox="0 0 153 31.5">
  <g id="Group_2476" data-name="Group 2476" transform="translate(-1525 -268)">
    <text id="Import_data_" data-name="Import data " transform="translate(1678 291)" fill="#999" font-size="18" font-family="Lato-Regular, Lato"><tspan x="-96.534" y="0">Import data </tspan></text>
    <path id="cloud_1_" data-name="cloud (1)" d="M30.55,55.878a10.117,10.117,0,0,0-1.16.066A10.07,10.07,0,0,0,9.837,55.88a10.067,10.067,0,0,0,.23,20.131H15.68v.438a3.31,3.31,0,0,0,3.306,3.306h2.645a3.31,3.31,0,0,0,3.306-3.306v-.438H30.55a10.067,10.067,0,0,0,0-20.134ZM26.29,70.041a1.417,1.417,0,0,1-1.256.762H23.047v5.87a1.417,1.417,0,0,1-1.417,1.417H18.986a1.417,1.417,0,0,1-1.417-1.417V70.8H15.582a1.417,1.417,0,0,1-1.162-2.228L19.146,61.8a1.417,1.417,0,0,1,2.324,0L26.2,68.576A1.417,1.417,0,0,1,26.29,70.041Z" transform="translate(1525 219.744)" fill="rgba(153,153,153,0.3)"/>
  </g>
</svg>
