<svg xmlns="http://www.w3.org/2000/svg" width="66" height="66.001" viewBox="0 0 66 66.001">
  <g id="Group_2429" data-name="Group 2429" transform="translate(-313 -707)">
    <g id="Ellipse_149" data-name="Ellipse 149" transform="translate(313 707)" fill="#fff" stroke="#707070" stroke-width="1">
      <ellipse cx="33" cy="33" rx="33" ry="33" stroke="none"/>
      <ellipse cx="33" cy="33" rx="32.5" ry="32.5" fill="none"/>
    </g>
    <g id="instagram" transform="translate(313 707.001)">
      <path id="Path_1972" data-name="Path 1972" d="M48.935,23.88H29.411a5.658,5.658,0,0,0-5.652,5.652V49.056a5.659,5.659,0,0,0,5.652,5.652H48.935a5.659,5.659,0,0,0,5.652-5.652V29.532A5.658,5.658,0,0,0,48.935,23.88ZM39.173,49.442A10.148,10.148,0,1,1,49.321,39.294,10.16,10.16,0,0,1,39.173,49.442Zm10.475-18.2a2.4,2.4,0,1,1,2.4-2.4A2.4,2.4,0,0,1,49.648,31.244Z" transform="translate(-6.173 -6.204)" fill="#d23d9b"/>
      <path id="Path_1973" data-name="Path 1973" d="M42.709,36.971a5.86,5.86,0,1,0,5.86,5.859A5.867,5.867,0,0,0,42.709,36.971Z" transform="translate(-9.71 -9.742)" fill="#d23d9b"/>
      <path id="Path_1974" data-name="Path 1974" d="M33,0A33,33,0,1,0,66,33,33,33,0,0,0,33,0ZM52.85,42.924A10.025,10.025,0,0,1,42.835,52.939H23.164A10.026,10.026,0,0,1,13.15,42.924V23.253A10.026,10.026,0,0,1,23.164,13.238H42.835A10.026,10.026,0,0,1,52.85,23.253Z" fill="#d23d9b"/>
    </g>
  </g>
</svg>
