<svg xmlns="http://www.w3.org/2000/svg" width="37.513" height="13.834" viewBox="0 0 37.513 13.834">
  <g id="Group_2263" data-name="Group 2263" transform="translate(-584.487 -670)">
    <text id="Like" transform="translate(604 681)" fill="#74c6f1" font-size="10" font-family="Lato-Regular, Lato"><tspan x="0" y="0">Like</tspan></text>
    <g id="thumb-up" transform="translate(580.399 670)">
      <path id="Path_1975" data-name="Path 1975" d="M16.593,9.294a1.855,1.855,0,0,0-.062-2.43,2.106,2.106,0,0,0,.377-1.553A1.545,1.545,0,0,0,15.642,4.3a4.982,4.982,0,0,0-1.115-.116,11.657,11.657,0,0,0-2.049.23,7.37,7.37,0,0,0-.54-2.889C11.665.9,10.853,0,10.1,0a.993.993,0,0,0-.842.5,2.767,2.767,0,0,0-.332,1.282l-.009.1c-.031.316-.05.637-.068.948-.019.329-.039.67-.074,1A4.162,4.162,0,0,1,8.26,5.609a1.417,1.417,0,0,1-1.3.6H6.89v-.55h-2.8V13.51h2.8v-.455c1.3.05,2.619.227,3.891.4.95.128,1.932.261,2.9.34l.032,0c.227.019.461.038.691.038h0a1.966,1.966,0,0,0,1.366-.439,1.822,1.822,0,0,0,.347-1.848A1.979,1.979,0,0,0,16.593,9.294ZM5.054,7.347V6.486h.861v.861Zm10.285,3.782a.409.409,0,0,0-.109.429,1.445,1.445,0,0,1,.053,1.1.547.547,0,0,1-.377.292,2.6,2.6,0,0,1-.619.065,8.447,8.447,0,0,1-1.151-.108c-.151-.021-.3-.042-.439-.058-.592-.068-1.194-.149-1.776-.228-1.317-.177-2.679-.36-4.032-.411V7.056l.1,0c2.4,0,2.583-2.591,2.719-4.482.019-.269.038-.523.061-.76l.008-.088c.024-.269.063-.72.265-.853a.249.249,0,0,1,.141-.043c.342,0,.776.613.921.892a6.5,6.5,0,0,1,.522,3.193.384.384,0,0,0,.108.287.472.472,0,0,0,.419.127,13.007,13.007,0,0,1,2.367-.294,5.065,5.065,0,0,1,.825.063c.476.078.73.235.756.467a1.321,1.321,0,0,1-.23.75,3.847,3.847,0,0,1-.246.365.489.489,0,0,0-.1.408.361.361,0,0,0,.2.255.716.716,0,0,1,.434.536,1.319,1.319,0,0,1-.384,1.085.422.422,0,0,0-.058.522A1.191,1.191,0,0,1,15.339,11.129Z" transform="translate(0)" fill="#74c6f1"/>
    </g>
  </g>
</svg>
