<svg xmlns="http://www.w3.org/2000/svg" width="66" height="66" viewBox="0 0 66 66">
  <g id="linkedin" transform="translate(-0.264)">
    <circle id="Ellipse_148" data-name="Ellipse 148" cx="33" cy="33" r="33" transform="translate(0.264 0)" fill="#007ab9"/>
    <g id="Group_2253" data-name="Group 2253" transform="translate(14.169 13.926)">
      <path id="Path_1971" data-name="Path 1971" d="M64.1,45.665V59.36h-7.94V46.583c0-3.208-1.146-5.4-4.021-5.4a4.343,4.343,0,0,0-4.073,2.9,5.434,5.434,0,0,0-.263,1.935V59.359h-7.94s.107-21.64,0-23.88h7.941v3.384c-.016.027-.038.053-.053.078h.053v-.078a7.883,7.883,0,0,1,7.156-3.945c5.224,0,9.14,3.413,9.14,10.746Zm-32.543-21.7c-2.716,0-4.493,1.783-4.493,4.125a4.112,4.112,0,0,0,4.389,4.127h.052c2.769,0,4.491-1.834,4.491-4.127a4.125,4.125,0,0,0-4.439-4.125ZM27.54,59.36h7.937V35.48H27.54Z" transform="translate(-27.068 -23.969)" fill="#f1f2f2"/>
    </g>
  </g>
</svg>
