<svg xmlns="http://www.w3.org/2000/svg" width="28.334" height="26.455" viewBox="0 0 28.334 26.455">
  <g id="link" transform="translate(0.5 -16.1)">
    <g id="Group_2071" data-name="Group 2071" transform="translate(0 16.6)">
      <path id="Path_1938" data-name="Path 1938" d="M14.448,189.23a.762.762,0,0,0,0,1.081,3.181,3.181,0,0,1,0,4.5l-6.511,6.511a3.181,3.181,0,0,1-4.5,0l-.979-.979a3.181,3.181,0,0,1,0-4.5l6.511-6.511a.765.765,0,0,0-1.081-1.081l-6.511,6.511a4.7,4.7,0,0,0,0,6.658l.979.979a4.716,4.716,0,0,0,6.658,0l6.511-6.511a4.716,4.716,0,0,0,0-6.658A.762.762,0,0,0,14.448,189.23Z" transform="translate(0 -178.32)" fill="#999" stroke="#999" stroke-width="1"/>
      <path id="Path_1939" data-name="Path 1939" d="M199.824,18.955l-.979-.979a4.716,4.716,0,0,0-6.658,0l-6.511,6.511a4.716,4.716,0,0,0,0,6.658.765.765,0,0,0,1.081-1.081,3.181,3.181,0,0,1,0-4.5l6.511-6.511a3.181,3.181,0,0,1,4.5,0l.979.979a3.181,3.181,0,0,1,0,4.5l-6.511,6.511a.767.767,0,0,0,.538,1.308.746.746,0,0,0,.538-.226l6.511-6.511a4.709,4.709,0,0,0,.006-6.658Z" transform="translate(-173.866 -16.6)" fill="#999" stroke="#999" stroke-width="1"/>
    </g>
  </g>
</svg>
