<svg xmlns="http://www.w3.org/2000/svg" width="190" height="49" viewBox="0 0 190 49">
  <g id="Group_1977" data-name="Group 1977" transform="translate(-1561 -21)">
    <g id="Rectangle_252" data-name="Rectangle 252" transform="translate(1561 21)" fill="none" stroke="#999" stroke-width="2" opacity="0.3">
      <rect width="190" height="49" rx="5" stroke="none"/>
      <rect x="1" y="1" width="188" height="47" rx="4" fill="none"/>
    </g>
    <text id="Notification" transform="translate(1621 54)" fill="#999" font-size="20" font-family="SegoeUI-Bold, Segoe UI" font-weight="700" letter-spacing="0.02em" opacity="0.3"><tspan x="0" y="0">Notification</tspan></text>
    <g id="alarm" transform="translate(1539.775 33)" opacity="0.3">
      <g id="Group_1974" data-name="Group 1974" transform="translate(44.39)">
        <g id="Group_1973" data-name="Group 1973" transform="translate(0)">
          <path id="Path_1665" data-name="Path 1665" d="M64.341,17.984a.944.944,0,0,0-1.856.348.945.945,0,0,1-.928,1.12H47.223a.945.945,0,0,1-.928-1.12,9.744,9.744,0,0,1,1.325-3.278A7.468,7.468,0,0,0,48.9,11.048V9.632a5.5,5.5,0,0,1,5.4-5.476h.179a5.489,5.489,0,0,1,5.378,5.476v1.416a6.681,6.681,0,0,0,.949,3.377.944.944,0,0,0,1.661-.9,4.809,4.809,0,0,1-.721-2.478V9.632a7.375,7.375,0,0,0-6.421-7.307V.944a.944.944,0,1,0-1.889,0V2.327a7.4,7.4,0,0,0-6.421,7.3v1.416a5.693,5.693,0,0,1-1.035,3.068,11.474,11.474,0,0,0-1.542,3.868,2.834,2.834,0,0,0,2.784,3.356h4.343a2.833,2.833,0,1,0,5.666,0h4.325a2.834,2.834,0,0,0,2.784-3.356Zm-9.942,4.3a.945.945,0,0,1-.944-.944h1.889A.945.945,0,0,1,54.4,22.285Z" transform="translate(-44.39)" fill="#999"/>
        </g>
      </g>
    </g>
  </g>
</svg>
