<svg xmlns="http://www.w3.org/2000/svg" width="80" height="80" viewBox="0 0 80 80">
  <g id="Group_2079" data-name="Group 2079" transform="translate(-762 -327)">
    <circle id="Ellipse_114" data-name="Ellipse 114" cx="40" cy="40" r="40" transform="translate(762 327)" fill="rgba(255,255,255,0.2)"/>
    <g id="landscape-representing-photo-archive" transform="translate(780.265 349.302)">
      <g id="c84_landscape" transform="translate(3.735 1.698)">
        <path id="Path_1933" data-name="Path 1933" d="M39.217,1.7H4.467a.733.733,0,0,0-.732.732V32.5a.737.737,0,0,0,.732.738H39.218a.737.737,0,0,0,.734-.738V2.43A.736.736,0,0,0,39.217,1.7ZM13.47,4.432a3.9,3.9,0,1,1-3.9,3.9A3.9,3.9,0,0,1,13.47,4.432Zm24.1,19.723H6.52v-.3l6.126-7,3.447,2.325L20.111,12.3l4.667,3.309L29,6.862l8.571,16.968Z" transform="translate(-3.735 -1.698)" fill="#fff"/>
      </g>
    </g>
  </g>
</svg>
