<svg xmlns="http://www.w3.org/2000/svg" width="38.507" height="38.507" viewBox="0 0 38.507 38.507">
  <g id="Group_2468" data-name="Group 2468" transform="translate(-375 -377)">
    <circle id="Ellipse_108" data-name="Ellipse 108" cx="19.253" cy="19.253" r="19.253" transform="translate(375 377)" fill="#ac92d4"/>
    <g id="Asset_1" data-name="Asset 1" transform="translate(384 387)">
      <g id="Capa_1" data-name="Capa 1" transform="translate(0 0)">
        <path id="Path_1684" data-name="Path 1684" d="M30.785,140.439c-.078-.2-.137-.393-.2-.59-.019-.078-.039-.137-.059-.216a4.319,4.319,0,0,1-.1-.866,4.156,4.156,0,0,1,1.218-2.948,2.362,2.362,0,0,1,.472-.413c.039-.02.059-.04.1-.059.059-.039.1-.059.157-.1l.295-.177a1.78,1.78,0,0,1,.2-.1.591.591,0,0,1,.157-.078c.079-.019.157-.059.236-.078a1.859,1.859,0,0,1,.255-.079l.177-.059-2.868-2.889-4.383,4.4a.547.547,0,0,1-.747,0l-2.968-2.966-3.478,3.5v2.435a1.793,1.793,0,0,0,.491,1.219,1.724,1.724,0,0,0,1.218.513v.04H31.041a3.7,3.7,0,0,1-.255-.472Z" transform="translate(-18.208 -124.658)" fill="none" stroke="#fff" stroke-width="0.1"/>
        <path id="Path_1686" data-name="Path 1686" d="M251.155,203.9a3.155,3.155,0,0,0-2.2-.9,3.037,3.037,0,0,0-2.2.9,3.156,3.156,0,0,0-.9,2.2,3.24,3.24,0,0,0,.059.629c.019.078.059.177.078.255a1.664,1.664,0,0,0,.1.334c.039.078.079.137.118.216a1.9,1.9,0,0,0,.2.334c.059.059.118.137.177.2.079.078.157.177.235.255a3.109,3.109,0,0,0,4.343-.039,3.144,3.144,0,0,0,.9-2.181A3.072,3.072,0,0,0,251.155,203.9Zm-.609,2.044a.546.546,0,0,1-.747,0l-.316-.314V207.8a.531.531,0,0,1-1.061,0v-2.165l-.314.314a.528.528,0,1,1-.747-.747l1.219-1.218a.463.463,0,0,1,.179-.117.561.561,0,0,1,.176-.039h.039a.564.564,0,0,1,.177.039.678.678,0,0,1,.177.118l1.218,1.218A.547.547,0,0,1,250.546,205.948Z" transform="translate(-232.545 -192.015)" fill="none" stroke="#fff" stroke-width="0.1"/>
        <circle id="Ellipse_107" data-name="Ellipse 107" cx="1.415" cy="1.415" r="1.415" transform="translate(6.347 4.5)" fill="#fff" stroke="#fff" stroke-width="0.1"/>
        <path id="Path_1687" data-name="Path 1687" d="M19.375,11.122A4.352,4.352,0,0,0,16.94,9.963V5.995H15.9V8.921L12.986,6.012a.528.528,0,0,0-.747,0l-4.383,4.4L4.888,7.427a.528.528,0,0,0-.747,0l-3.1,3.144V2.77a1.646,1.646,0,0,1,.511-1.2A1.724,1.724,0,0,1,2.769,1.06h11.4A1.745,1.745,0,0,1,15.9,2.792v.413h1.037V2.772A2.829,2.829,0,0,0,16.131.808,2.746,2.746,0,0,0,14.167,0H2.769A2.829,2.829,0,0,0,.8.8,2.746,2.746,0,0,0,0,2.77V14.5A2.83,2.83,0,0,0,.8,16.467a2.746,2.746,0,0,0,1.965.806H13.794a4.157,4.157,0,0,0,5.581-6.151ZM2.75,16.271v-.037a1.724,1.724,0,0,1-1.218-.511A1.793,1.793,0,0,1,1.04,14.5V12.067l3.478-3.5,2.968,2.968a.547.547,0,0,0,.747,0l4.383-4.4,2.868,2.889-.177.059a1.87,1.87,0,0,0-.255.079c-.078.019-.157.059-.236.078a.591.591,0,0,0-.157.078,1.788,1.788,0,0,0-.2.1l-.295.177c-.059.039-.1.059-.157.1-.039.019-.059.04-.1.059a2.362,2.362,0,0,0-.472.413,4.156,4.156,0,0,0-1.218,2.948,4.318,4.318,0,0,0,.1.866c.02.078.04.137.059.216.059.2.118.393.2.59V15.8a3.705,3.705,0,0,0,.255.472Zm15.859,0a3.109,3.109,0,0,1-4.343.039c-.078-.078-.157-.177-.235-.255-.059-.059-.118-.137-.177-.2a1.9,1.9,0,0,1-.2-.334c-.04-.079-.079-.138-.118-.216a1.662,1.662,0,0,1-.1-.334c-.019-.078-.059-.177-.078-.255a3.238,3.238,0,0,1-.059-.629,3.157,3.157,0,0,1,.9-2.2,3.039,3.039,0,0,1,2.2-.9,3.155,3.155,0,0,1,2.2.9,3.072,3.072,0,0,1,.9,2.2,3.144,3.144,0,0,1-.9,2.181Z" transform="translate(0.002 0.001)" fill="#fff" stroke="#fff" stroke-width="0.1"/>
        <path id="Path_1688" data-name="Path 1688" d="M273.07,218.407a.678.678,0,0,0-.177-.118.564.564,0,0,0-.177-.04h-.04a.56.56,0,0,0-.176.04.462.462,0,0,0-.177.118l-1.219,1.218a.528.528,0,1,0,.747.747l.314-.314v2.165a.531.531,0,0,0,1.061,0v-2.165l.314.314a.528.528,0,1,0,.747-.747Z" transform="translate(-256.288 -206.439)" fill="#fff" stroke="#fff" stroke-width="0.1"/>
        <rect id="Rectangle_272" data-name="Rectangle 272" width="1.042" height="1.042" rx="0.521" transform="translate(15.898 2.667)" fill="#fff" stroke="#fff" stroke-width="0.1"/>
        <rect id="Rectangle_273" data-name="Rectangle 273" width="1.042" height="1.042" rx="0.521" transform="translate(15.898 5.465)" fill="#fff" stroke="#fff" stroke-width="0.1"/>
      </g>
    </g>
  </g>
</svg>
