<svg xmlns="http://www.w3.org/2000/svg" width="44.333" height="12" viewBox="0 0 44.333 12">
  <g id="Group_2261" data-name="Group 2261" transform="translate(-863.667 -672)">
    <g id="Group_2260" data-name="Group 2260">
      <text id="Share" transform="translate(883 682)" fill="#999" font-size="10" font-family="Lato-Regular, Lato"><tspan x="0" y="0">Share</tspan></text>
      <g id="Group_2259" data-name="Group 2259" transform="translate(-889 10152)">
        <path id="Path_1977" data-name="Path 1977" d="M119.266,68.1l-4.685-4.016a.335.335,0,0,0-.552.254v2.347c-3.739.1-5.543,1.955-6.4,3.515a8.125,8.125,0,0,0-.951,3.249q-.011.127-.011.258h0s0,0,0,0h0a.335.335,0,0,0,.667-.042h0c0-.017,0-.059,0-.122.146-2.783,5.287-3.414,6.689-3.535V72.37a.335.335,0,0,0,.552.254l4.685-4.016a.334.334,0,0,0,0-.508Z" transform="translate(1646 -9543.005)" fill="#999"/>
        <path id="Path_1978" data-name="Path 1978" d="M149.881,104.425v-1.95a.335.335,0,0,0-.335-.335h-.015c-.236.011-4.46.228-6.542,2.018.689-1.816,2.383-4.026,6.555-4.026h0a.335.335,0,0,0,.335-.335v-1.95l3.836,3.288Z" transform="translate(1610.818 -9575.787)" fill="#fff"/>
      </g>
    </g>
  </g>
</svg>
