<svg xmlns="http://www.w3.org/2000/svg" width="14" height="14" viewBox="0 0 14 14">
  <g id="twitter" transform="translate(0 -0.106)">
    <ellipse id="Ellipse_147" data-name="Ellipse 147" cx="7" cy="7" rx="7" ry="7" transform="translate(0 0.106)" fill="#55acee"/>
    <g id="Group_2249" data-name="Group 2249" transform="translate(3 3.107)">
      <path id="Path_1966" data-name="Path 1966" d="M34.021,34.886a3.651,3.651,0,0,1-1.051.288,1.835,1.835,0,0,0,.8-1.012,3.663,3.663,0,0,1-1.162.444A1.831,1.831,0,0,0,29.5,36.275a5.194,5.194,0,0,1-3.771-1.912,1.832,1.832,0,0,0,.566,2.443,1.817,1.817,0,0,1-.829-.229c0,.008,0,.016,0,.023a1.831,1.831,0,0,0,1.468,1.794,1.837,1.837,0,0,1-.826.032A1.832,1.832,0,0,0,27.812,39.7a3.693,3.693,0,0,1-2.709.758,5.2,5.2,0,0,0,8.01-4.384c0-.079,0-.158-.005-.237a3.71,3.71,0,0,0,.913-.947Z" transform="translate(-25.103 -34.028)" fill="#f1f2f2"/>
    </g>
  </g>
</svg>
