<svg xmlns="http://www.w3.org/2000/svg" width="66" height="66" viewBox="0 0 66 66">
  <g id="twitter" transform="translate(0 -0.106)">
    <ellipse id="Ellipse_147" data-name="Ellipse 147" cx="33" cy="33" rx="33" ry="33" transform="translate(0 0.106)" fill="#55acee"/>
    <g id="Group_2249" data-name="Group 2249" transform="translate(9.914 13.012)">
      <path id="Path_1966" data-name="Path 1966" d="M70.575,38.4a18.614,18.614,0,0,1-5.359,1.467,9.355,9.355,0,0,0,4.1-5.16A18.676,18.676,0,0,1,63.4,36.973a9.337,9.337,0,0,0-15.9,8.51,26.483,26.483,0,0,1-19.229-9.749A9.339,9.339,0,0,0,31.155,48.19a9.264,9.264,0,0,1-4.225-1.168c0,.04,0,.079,0,.118a9.335,9.335,0,0,0,7.484,9.147,9.366,9.366,0,0,1-4.213.161,9.339,9.339,0,0,0,8.715,6.479A18.832,18.832,0,0,1,25.1,66.79a26.388,26.388,0,0,0,14.3,4.192c17.16,0,26.544-14.215,26.544-26.544,0-.4-.009-.807-.027-1.206A18.918,18.918,0,0,0,70.575,38.4Z" transform="translate(-25.103 -34.028)" fill="#f1f2f2"/>
    </g>
  </g>
</svg>
