<svg xmlns="http://www.w3.org/2000/svg" xmlns:xlink="http://www.w3.org/1999/xlink" width="76.61" height="76.61" viewBox="0 0 76.61 76.61">
  <defs>
    <filter id="Rectangle_280" x="0" y="0" width="76.61" height="76.61" filterUnits="userSpaceOnUse">
      <feOffset input="SourceAlpha"/>
      <feGaussianBlur stdDeviation="3" result="blur"/>
      <feFlood flood-color="#37c739" flood-opacity="0.098"/>
      <feComposite operator="in" in2="blur"/>
      <feComposite in="SourceGraphic"/>
    </filter>
  </defs>
  <g id="Group_2003" data-name="Group 2003" transform="translate(-286 -683)">
    <g transform="matrix(1, 0, 0, 1, 286, 683)" filter="url(#Rectangle_280)">
      <rect id="Rectangle_280-2" data-name="Rectangle 280" width="58.61" height="58.61" rx="29" transform="translate(9 9)" fill="#f4aab4"/>
    </g>
    <g id="Group_1996" data-name="Group 1996" transform="translate(218 606.7)">
      <g id="twitter-black-shape" transform="translate(93 103.3)">
        <g id="Group_1995" data-name="Group 1995" transform="translate(0 0)">
          <path id="Path_1689" data-name="Path 1689" d="M26.137,143.176q-.2.058-.4.108c-.811.2-.886-.065-.3-.662a5.413,5.413,0,0,0,.7-.872c.452-.7.06-1.011-.71-.682q-.412.176-.837.318a3.5,3.5,0,0,1-2.625-.584,5.809,5.809,0,0,0-7.112.834,5.545,5.545,0,0,0-1.683,4.07,6.076,6.076,0,0,0,.037.662c.04.365-.574.629-1.4.512A15.921,15.921,0,0,1,6.7,145.253a16.382,16.382,0,0,1-4.237-3.116c-.585-.6-1.377-.547-1.6.261a5.764,5.764,0,0,0-.2,1.511,5.6,5.6,0,0,0,.695,2.743,5.889,5.889,0,0,0,.81,1.139c.521.572.441.9-.284.7A9.34,9.34,0,0,1,.633,148v.036a5.557,5.557,0,0,0,1.309,3.66,5.726,5.726,0,0,0,1.873,1.5c.75.372,1.1.579.68.633a5.949,5.949,0,0,1-.764.049q-.26,0-.545-.024c-.3-.025-.354.6.1,1.3a5.76,5.76,0,0,0,1.388,1.474,5.629,5.629,0,0,0,1.853.931c.8.229.966.647.249,1.078a11.24,11.24,0,0,1-5.9,1.6q-.364,0-.7-.016c-.384-.018-.126.32.615.708a15.974,15.974,0,0,0,7.525,1.819,16.82,16.82,0,0,0,5.752-.97,14.63,14.63,0,0,0,4.595-2.6,17.4,17.4,0,0,0,3.286-3.749,16.722,16.722,0,0,0,2.057-4.425,16.353,16.353,0,0,0,.677-4.622c0-.139,0-.264,0-.374,0-.207.542-.766,1.153-1.339q.413-.388.789-.814C27.185,143.229,26.94,142.942,26.137,143.176Z" transform="translate(-0.01 -139.955)" fill="#fff"/>
        </g>
      </g>
    </g>
  </g>
</svg>
