<svg xmlns="http://www.w3.org/2000/svg" width="161.018" height="124.878" viewBox="0 0 161.018 124.878">
  <path id="cloud_1_" data-name="cloud (1)" d="M121.109,78.472a40.1,40.1,0,0,0-4.6.263A39.921,39.921,0,0,0,39,78.482a39.909,39.909,0,0,0,.91,79.808H62.16v1.738a13.121,13.121,0,0,0,13.106,13.106H85.751a13.121,13.121,0,0,0,13.106-13.106V158.29h22.252a39.909,39.909,0,0,0,0-79.818Zm-16.884,56.15a5.616,5.616,0,0,1-4.98,3.019H91.368v23.27a5.617,5.617,0,0,1-5.617,5.617H75.267a5.617,5.617,0,0,1-5.617-5.617V137.64H61.772a5.617,5.617,0,0,1-4.607-8.831L75.9,101.951a5.617,5.617,0,0,1,9.214,0l18.736,26.859A5.616,5.616,0,0,1,104.225,134.621Z" transform="translate(0 -48.256)" fill="rgba(153,153,153,0.3)"/>
</svg>
